<?xml version="1.0" encoding="utf-8"?>
<!-- Generator: Adobe Illustrator 26.3.1, SVG Export Plug-In . SVG Version: 6.00 Build 0)  -->
<svg version="1.1" id="Capa_1" xmlns="http://www.w3.org/2000/svg" xmlns:xlink="http://www.w3.org/1999/xlink" x="0px" y="0px"
	 viewBox="0 0 316.8 232.9" style="enable-background:new 0 0 316.8 232.9;" xml:space="preserve">
<style type="text/css">
	.st0{fill:#FFFFFF;}
	.st1{fill:#FBAE3C;}
	.st2{fill:#022E40;}
	.st3{fill:#013440;}
	.st4{opacity:0.5;}
	.st5{fill:#4DA1A4;}
</style>
<g>
	<g>
		<g>
			<g>
				<g>
					<g>
						<g>
							<g>
								<g>
									<g>
										<g>
											<g>
												<g>
													<g>
														<g>
															<g>
																<g>
																	<g>
																		<g>
																			<g>
																				<g>
																					<g>
																						<g>
																							<g id="change1_2">
																								<path class="st0" d="M3.4,191.1h90.2v41.3H3.4V191.1z"/>
																							</g>
																						</g>
																					</g>
																				</g>
																			</g>
																		</g>
																	</g>
																</g>
															</g>
														</g>
													</g>
												</g>
											</g>
										</g>
									</g>
								</g>
							</g>
						</g>
					</g>
				</g>
			</g>
		</g>
	</g>
</g>
<g id="change1_3">
	<path class="st0" d="M151.3,161.5h-30.1v41.4c0,0.3-0.2,0.5-0.5,0.5h-101c-0.1,0-0.3-0.1-0.4-0.2c-0.1-0.1-0.1-0.3-0.1-0.4l7-34.5
		c-0.5,0-1,0-1.6,0c-1.1,0-2.2,0-3.4-0.1c-6.1-0.2-10.6-2.4-13.4-6.3c-8-11.4-0.2-35.5,5.4-53.1c0.4-1.3,0.8-2.6,1.2-3.9
		C22.2,81,34.9,74,46.3,70.3c0,0,0,0,0,0c0,0,0,0,0,0L65,65.8l0,0l6.7-7.2c0.2-0.2,0.4-0.2,0.6-0.1l1.5,0.7l0.1-0.8c0,0,0-0.1,0-0.2
		v-7.6v-5.3c-1.4-1.3-8.3-7.6-7.1-11.2c0.2-0.7,0.7-1.3,1.4-1.6c-0.4-1.2-7.5-24,4.3-28.2c12.1-4.3,30.2,2.5,37.5,2.9
		c7.3,0.4,8.9,10,2.6,11.4c-0.4,0.1-0.9,0.2-1.4,0.2c0.2,0.1,0.3,0.2,0.4,0.4c0,0.3-0.2,0.5-0.5,0.5c-0.1,0-0.2,0-0.3,0
		c0,0,0,0.1,0.1,0.1c0,0,0.5,2.5,1.1,6.1v0c0.4,2.4,0.8,5,1.1,7.3v0c1.3,9.3,1.4,15.6,0.2,18.5c-1,2.6-3.2,4.7-6.5,5.9
		c-1,0.4-2,0.7-3.1,0.9c-0.5,0.1-1,0.2-1.5,0.2c0,0,0,0,0,0c0,0.1,0.1,0.1,0.1,0.2v4.5c0,0.2-0.1,0.4-0.3,0.5v1.1l2.3-1.5
		c0.2-0.1,0.5-0.1,0.7,0.1l5.1,6.7c0.2,0.2,0.1,0.5,0,0.6l-0.2,0.2l11.6,7.1c0.1,0.1,0.1,0.1,0.2,0.2c1.3-1.7,3.3-2.8,5.5-2.8h55.1
		c0.2,0,0.3,0.1,0.4,0.2s0.1,0.3,0.1,0.4l-9.9,33.9c0.1-0.1,0.3-0.2,0.4-0.1c2.2,0.5,3.6,2.8,3.6,5.8c0,2.1-0.6,4.4-2.1,6.4
		c0.1,1.7-0.1,3.4-0.7,5c0.1,2-0.3,4.1-1.2,5.9c-0.2,3.4-1.6,6.8-4.8,8.1c-1.1,0.5-2.2,0.7-3.2,0.7c-0.5,0-0.9-0.1-1.4-0.2
		l-5.5,18.8c-0.1,0.2-0.3,0.4-0.5,0.4L151.3,161.5L151.3,161.5z M310,110.7l-12.7-8.1v-9.7c0-0.1-0.1-0.3-0.2-0.4
		c-0.1-0.1-0.2-0.1-0.4-0.1l-1.1,0.1l0.2-3.8l0,0c5.7-1.5,10.3-5.4,13.1-11.1c4.2-8.4,7.8-16.5,7.7-21.7c-0.3-9.4-18.1-18-33.6-19
		s-19.6,15.3-16.5,15.3c0.6,0,1.2-0.1,1.7-0.2c0,0,0,0,0,0c-0.5,0.8-1,1.7-1.5,2.5c0,0,0,0,0,0c-0.2,0-0.4,0-0.7,0
		c-0.3,0-0.5,0.3-0.4,0.5c0,0.3,0.3,0.5,0.5,0.4c0,0,0,0,0,0c-0.1,0.2-0.2,0.4-0.3,0.6c-0.2,0-0.4,0.1-0.5,0.3l-0.1,0.2
		c-0.2,0.4-0.4,0.8-0.5,1.2c-0.3,0.7-0.6,1.3-0.9,2c0,0,0,0,0,0l-0.5,1.1c-0.4,1-0.9,2-1.3,3v0l-0.1,0.1c-0.4,0.4-1.3,1.4-2.4,2.6
		c-4.1,4.7-4.1,5.8-4,6.2c0,0.3,0.2,0.6,0.4,0.7c0.9,0.7,1.7,1,2.2,1.1c-1.7,5.9-1.5,9.9,0.4,12.3c1.5,1.8,3.9,2.8,7.3,3v2.3v1.5
		c0,0.3,0.2,0.5,0.5,0.5c0.1,0,0.1,0,0.2,0l0.1,1.1l-1.2,0.1c-0.1,0-0.2,0.1-0.3,0.2l-8.7,9.8l-13.1,8.7c0,0,0,0,0,0
		c0,0-0.1,0.1-0.1,0.1c0,0,0,0,0,0l-12.2,18.4l0,0l-18.4,27.7l-33.6,15.6c-0.2,0.1-0.3,0.3-0.3,0.6l0.5,2l-3.9,1.7l0.3,1.1l-7.6,3
		c-0.8-0.5-3.8-2.2-10.1-3.8c-4.9-1.2-13.3-2.9-14.9-0.9c-0.3,0.4-0.5,1,0,1.9c1.8,3.3,7,5.2,7.9,5.5l3.4,3.6
		c-2.1,0.7-8.4,2.8-14.9,3.6c-2.6,0.3-5.1,0.4-7.3,0.4c-4.8,0.1-8.7,0.2-8.8,3.2c0,0.8,0.4,1.6,1.1,2.3c0.8,0.7,1.9,1.2,3.3,1.6
		c0,0.1,0,0.2,0.1,0.3c0.8,1.2,1.8,2.2,3.1,3c-0.1,0.1,0,0.3,0,0.4c1,1.5,2.1,3,3.9,4.1c-0.1,0.1-0.2,0.3-0.1,0.5
		c1.4,4.6,5.4,6.7,13.2,6.7c2.6,0,5.5-0.2,8.9-0.7c0,0,0,0,0.1,0c0,0,0,0,0.1,0c0,0,0,0,0,0c0,0,0,0,0,0l17.4-8.4l6.8-1.7l0.2,1.1
		l4.6-1.1l0.9,3.8c0,0.1,0.1,0.2,0.2,0.3c0.1,0,0.2,0.1,0.3,0.1c0,0,0.1,0,0.1,0l35-10l-7.2,30.3c0,0.1,0,0.3,0.1,0.4
		c0.1,0.1,0.2,0.2,0.4,0.2h96.8c0.1,0,0.3-0.1,0.4-0.2c0.1-0.1,0.1-0.3,0.1-0.4l-5.8-31.8l1-17.2c0,0,0,0,0,0l0,0l0.8-14l5.6-12.4
		c0-0.1,0.1-0.2,0-0.3l-5.1-43.6C310.2,110.9,310.1,110.7,310,110.7z M150.7,44.8h83.5c0.3,0,0.5-0.2,0.5-0.5h3.8v-9.2
		c0.3,0,0.5-0.2,0.5-0.5V27c0-0.3-0.2-0.5-0.5-0.5v-3.8c0.3,0,0.5-0.2,0.5-0.5V4.1c0-0.3-0.2-0.5-0.5-0.5h-87.7
		c-0.3,0-0.5,0.2-0.5,0.5v40.2C150.2,44.6,150.5,44.8,150.7,44.8z"/>
</g>
<g id="change2_1">
	<path class="st1" d="M316.7,55.9c0.1,5.2-3.5,13.4-7.7,21.7c-2.8,5.6-7.4,9.6-13.1,11.1c-1.7,0.4-3.5,0.7-5.4,0.7
		c-3.5,0-6.3-2.8-6.3-6.3v-4.2c1.9-0.9,9.2-4.5,8.2-8.4c-0.2-0.9-0.8-1.5-1.6-1.9c-2-1-5.4,0-7,0.6l2.1-9.5l0.4-2
		c0,0-0.4,0.3-1.1,0.6c-1.1,0.6-3,1.2-4.4,0.7c-2.2-0.8,0.3-5.1,0.3-5.1s-6.5,1.5-8.9,0.7c-2.3-0.7-0.6-4-0.6-4s-1.4,1-3.5,1.4
		c-0.5,0.1-1.1,0.2-1.7,0.2c-3,0,1.1-16.4,16.5-15.3S316.4,46.5,316.7,55.9z M182.2,76.4c0.1,0.1,0.1,0.3,0.1,0.4l-9.9,33.9
		c-0.1,0.1-0.1,0.2-0.2,0.3c0,0.1,0,0.2,0,0.2l-1.5,5.2c-5.3,1.1-8.6,4.3-9.4,6.9c-0.4,1.2-0.3,2.3,0.4,3.1c0.3,0.4,0.9,0.8,1.8,1
		c-1.5,2.3-1,3.7-0.5,4.4c0,0,0.1,0,0.1,0.1c-1.6,2.2-1.4,3.6-1,4.4c-2.1,2.7-1.5,4.3-0.9,5c0.4,0.6,1.2,1,2,1.2l-5.5,18.8
		c-0.1,0.2-0.3,0.4-0.5,0.4h-5.9h-30.1H88.8c-0.2,0-0.3-0.1-0.4-0.2s-0.1-0.3-0.1-0.4l2.1-7.2c1.9-0.1,3.8-0.3,5.5-0.6
		c6.9-1.3,16.5-6.4,18.3-11c3.1-2.1,4.8-5.1,4.8-8.2c1.8-1.4,2.7-3.1,3.1-5.5c1.4-0.6,2.7-1.4,3-2.5c0.2-0.6,0.2-1.4-0.8-2.4
		c-1.5-1.5-5.6-1.1-11.3-0.6c-4.2,0.4-9.1,0.8-13.9,0.6l0.6-1.9l0,0c0,0,0,0,0,0l0.2-0.7l1.4-4.6c0.2,0,0.5-0.1,0.7-0.1
		c0.3,0,0.5-0.3,0.5-0.5c0-0.3-0.3-0.5-0.5-0.5c-0.1,0-0.2,0-0.4,0l0.1-0.3c0.1-0.2,0.3-0.4,0.5-0.4h2.3l7.8-26.8
		c0.9-2.9,3.6-5,6.6-5h0.8l0.5-1.6c0.2-0.8,0.6-1.5,1.1-2.2c1.3-1.7,3.3-2.8,5.5-2.8h55.1C182,76.2,182.1,76.2,182.2,76.4z
		 M119.4,83.8h-0.5c-2.6,0-4.9,1.7-5.7,4.2l-7.7,26.5h4.9L119.4,83.8z"/>
</g>
<g id="change3_1">
	<path class="st2" d="M85.9,125.2c0.2-0.3,0.6-0.7,1.1-1.2c-0.6,0.7-1,1.2-1,1.2L85.9,125.2z M99.8,121.5l-0.6,1.9c0,0,0,0,0,0
		L99.8,121.5z M100,120.8l-0.2,0.7c0,0,0,0,0,0L100,120.8z M88.8,161.5h32.5v41.4c0,0.3-0.2,0.5-0.5,0.5h-101
		c-0.1,0-0.3-0.1-0.4-0.2c-0.1-0.1-0.1-0.3-0.1-0.4l7-34.5c-0.5,0-1,0-1.6,0c-1.1,0-2.2,0-3.4-0.1c-6.1-0.2-10.6-2.4-13.4-6.3
		c-8-11.4-0.2-35.5,5.4-53.1c0.4-1.3,0.8-2.6,1.2-3.9C22.2,81,34.9,74,46.3,70.3c0,0,0,0,0,0c0,0,0,0,0,0L65,65.8l0,0l6.7-7.2
		c0.2-0.2,0.4-0.2,0.6-0.1l1.5,0.7l22,10.1l6-3.8l2.3-1.5c0.2-0.1,0.5-0.1,0.7,0.1l5.1,6.7c0.2,0.2,0.1,0.5,0,0.6l-0.2,0.2l11.6,7.1
		c0.1,0.1,0.1,0.1,0.2,0.2c-0.5,0.6-0.9,1.4-1.1,2.2l-0.5,1.6h-0.8c-3,0-5.8,2-6.6,5l-7.8,26.8h-2.3c-0.2,0-0.4,0.1-0.5,0.4
		l-0.1,0.3c-9.2,0.7-15.7,8.4-16.7,9.6l-7.5,2.2l0.2-1.6c0-0.2,0-0.3-0.2-0.4c-0.1-0.1-0.3-0.2-0.4-0.1l-42.5,9.6l10.8-32.9
		c0.1-0.3-0.1-0.5-0.3-0.6c-0.3-0.1-0.5,0.1-0.6,0.3l-11.1,33.7c-0.1,0.2,0,0.4,0.1,0.5c0.1,0.1,0.3,0.2,0.5,0.2l42.6-9.6l-4.5,30.6
		c-2.4,0.9-20.6,7.8-33.3,9.9c-0.3,0-0.5,0.3-0.4,0.6c0,0.2,0.3,0.4,0.5,0.4c0,0,0.1,0,0.1,0c13.7-2.2,33.6-10,33.8-10
		c0.2-0.1,0.3-0.2,0.3-0.4l0.4-2.8l3.9-0.9c0.1,0.1,0.2,0.2,0.3,0.2c0.3,0,4.3,0.4,8.9,0.4c1.2,0,2.5,0,3.8-0.1l-2.1,7.2
		c0,0.2,0,0.3,0.1,0.4S88.7,161.5,88.8,161.5z M96.4,69.9l0.2,0.3l1.6,2.6l3.4,5.5l4.8-5l0.5-0.5l1.2-1.2l0.3-0.3l0,0l0.3-0.3
		l-4.6-6l-2.4,1.6L96.4,69.9z M66,66.1l0.6,0.3l5.9,3.1l3.6,1.9l13.4,7.1l3.8-6L95,70l0,0l-21.5-9.8l-1.4-0.7L66,66.1z M238,4.7v8
		h-25.3c0-0.3-0.2-0.5-0.5-0.5h-49.6c-0.3,0-0.5,0.2-0.5,0.5h-10.8v-8C151.2,4.7,238,4.7,238,4.7z M156.3,7.2
		c-0.8-0.4-1.8-0.2-2.2,0.6c-0.4,0.8-0.2,1.8,0.6,2.2c0.8,0.4,1.8,0.2,2.2-0.6C157.3,8.7,157.1,7.7,156.3,7.2z M162.4,7.2
		c-0.8-0.4-1.8-0.2-2.2,0.6c-0.4,0.8-0.2,1.8,0.6,2.2c0.8,0.4,1.8,0.2,2.2-0.6S163.2,7.7,162.4,7.2z M168.5,7.2
		c-0.8-0.4-1.8-0.2-2.2,0.6c-0.4,0.8-0.2,1.8,0.6,2.2c0.8,0.4,1.8,0.2,2.2-0.6C169.5,8.7,169.3,7.7,168.5,7.2z"/>
</g>
<g id="change4_1">
	<path class="st2" d="M112.3,18.6c-0.4,0.1-0.9,0.2-1.4,0.2c-0.1,0-0.1,0-0.2,0c-0.2,0-0.3,0-0.5,0.1c0,0,0,0,0,0
		c-6.3,0.2-15.1-3.5-15.3-3.6c0.1,0.2,0.9,1.6,0.6,3.2c0,0,0,0,0,0c-4.3-1.1-8.9,0.5-12.5,3.3c0,0,0,0,0,0c-2.4-0.8-4.2-1.8-4.2-1.8
		c-1.1,6.5-3.6,11.5-4.4,12.9c-1.5-0.6-4.4-1.5-6.2-0.6c-0.1,0-0.2,0.1-0.2,0.1c-0.4-1.2-7.5-24,4.3-28.2
		c12.1-4.3,30.2,2.5,37.5,2.9C117,7.6,118.6,17.2,112.3,18.6z M84.2,22.2c2.6,0.7,5.6,1.1,8,0c1.7-0.8,2.6-1.7,3-2.7
		C91.3,18.4,87.3,19.9,84.2,22.2z M308.8,181.3l2-44.6c0-0.1-0.1-0.3-0.2-0.4c-0.1-0.1-0.3-0.2-0.4-0.1c-22.2,2.6-34,3.7-34.1,3.7
		c-0.3,0-0.5,0.3-0.5,0.5c0,0.3,0.3,0.5,0.5,0.5c0.1,0,11.7-1.1,33.5-3.6l-1.9,44c0,0.3,0.2,0.5,0.5,0.5c0,0,0,0,0,0
		C308.6,181.8,308.8,181.6,308.8,181.3l-1,17.2l5.8,31.8c0,0.1,0,0.3-0.1,0.4s-0.2,0.2-0.4,0.2h-96.8c-0.2,0-0.3-0.1-0.4-0.2
		c-0.1-0.1-0.1-0.3-0.1-0.4L223,200l2.6-0.8c8.5-2.4,15.8-8.2,20-15.9l16.5-29.9c0.1-0.2,0-0.5-0.2-0.7c-0.2-0.1-0.5,0-0.7,0.2
		l-16.5,29.9c-4.1,7.5-11.2,13.1-19.4,15.5l-37.1,10.6l-2.2-9.7c-0.1-0.3-0.3-0.4-0.6-0.4c-0.3,0.1-0.4,0.3-0.4,0.6l0,0l-2.1-8
		l-3.5-13.1l-0.5-2c-0.1-0.2,0.1-0.5,0.3-0.6l33.6-15.6l-0.1,0.1c-0.2,0.2-0.1,0.5,0.1,0.7c0.1,0.1,0.2,0.1,0.3,0.1
		c0.2,0,0.3-0.1,0.4-0.2L232,133c0.2-0.2,0.1-0.5-0.1-0.7c-0.2-0.2-0.5-0.1-0.7,0.1l12.2-18.4c0,0,0,0,0,0c0,0,0.1-0.1,0.1-0.1
		c0,0,0,0,0,0l13.1-8.7l8.7-9.8c0.1-0.1,0.2-0.2,0.3-0.2l1.2-0.1l28.9-2.7l1.1-0.1c0.1,0,0.3,0,0.4,0.1c0.1,0.1,0.2,0.2,0.2,0.4v9.7
		l12.7,8.1c0.1,0.1,0.2,0.2,0.2,0.4l5.1,43.6c0,0.1,0,0.2,0,0.3l-5.6,12.4L308.8,181.3z M251.2,210.3c-0.3,0.1-0.4,0.3-0.4,0.6
		c0.1,0.2,0.3,0.4,0.5,0.4c0,0,0.1,0,0.1,0l56-12.3c0.3-0.1,0.4-0.3,0.4-0.6c-0.1-0.3-0.3-0.4-0.6-0.4L251.2,210.3z M296.3,93.4
		l-0.6,0.1l-28.7,2.7l-1,0.1l-8.2,9.3l-0.2,0.2l10.3-0.9l1.1-0.1l21-1.8l6.5-0.6L296.3,93.4L296.3,93.4z M158.1,20.7h73.3
		c0.3,0,0.5-0.2,0.5-0.5c0-0.3-0.2-0.5-0.5-0.5h-73.3c-0.3,0-0.5,0.2-0.5,0.5C157.6,20.5,157.8,20.7,158.1,20.7z M158.1,25.6h73.3
		c0.3,0,0.5-0.2,0.5-0.5c0-0.3-0.2-0.5-0.5-0.5h-73.3c-0.3,0-0.5,0.2-0.5,0.5C157.6,25.4,157.8,25.6,158.1,25.6z M158.1,30.5h73.3
		c0.3,0,0.5-0.2,0.5-0.5c0-0.3-0.2-0.5-0.5-0.5h-73.3c-0.3,0-0.5,0.2-0.5,0.5C157.6,30.3,157.8,30.5,158.1,30.5z M205.8,34.9
		c0-0.3-0.2-0.5-0.5-0.5h-47.2c-0.3,0-0.5,0.2-0.5,0.5c0,0.3,0.2,0.5,0.5,0.5h47.2C205.6,35.4,205.8,35.2,205.8,34.9z"/>
</g>
<g id="change1_4">
	<path class="st0" d="M106.9,72.9l-0.5,0.5l-4.8,5l-3.4-5.5l-1.6-2.6l-0.2-0.3l5.2-3.4l2.4-1.6l4.6,6l-0.3,0.3l0,0l-0.3,0.3
		L106.9,72.9z M238.5,22.8L238.5,22.8v3.8l0,0c-0.3,0-0.5,0.2-0.5,0.5v7.5c0,0.3,0.2,0.5,0.5,0.5l0,0v9.2h-3.8l0,0
		c0-0.3-0.2-0.5-0.5-0.5h-83V12.6H162l0,0c0,0.3,0.2,0.5,0.5,0.5h49.6c0.3,0,0.5-0.2,0.5-0.5l0,0h25.3v9.6
		C238,22.5,238.2,22.8,238.5,22.8z M205.8,34.9c0-0.3-0.2-0.5-0.5-0.5h-47.2c-0.3,0-0.5,0.2-0.5,0.5c0,0.3,0.2,0.5,0.5,0.5h47.2
		C205.6,35.4,205.8,35.2,205.8,34.9z M231.9,30c0-0.3-0.2-0.5-0.5-0.5h-73.3c-0.3,0-0.5,0.2-0.5,0.5c0,0.3,0.2,0.5,0.5,0.5h73.3
		C231.7,30.5,231.9,30.3,231.9,30z M231.9,25.1c0-0.3-0.2-0.5-0.5-0.5h-73.3c-0.3,0-0.5,0.2-0.5,0.5c0,0.3,0.2,0.5,0.5,0.5h73.3
		C231.7,25.6,231.9,25.4,231.9,25.1z M231.9,20.2c0-0.3-0.2-0.5-0.5-0.5h-73.3c-0.3,0-0.5,0.2-0.5,0.5c0,0.3,0.2,0.5,0.5,0.5h73.3
		C231.7,20.7,231.9,20.5,231.9,20.2z M260.4,68.3c0-0.1,0.1-0.2,0.1-0.3c0.2-0.5,0.4-1,0.6-1.5c-0.2,0.2-0.4,0.4-0.6,0.7
		c-4,4.5-3.8,5.4-3.8,5.5c0.8,0.6,1.4,0.8,1.8,0.9C259,72.1,259.6,70.3,260.4,68.3z M154.1,7.8c-0.4,0.8-0.2,1.8,0.6,2.2
		c0.8,0.4,1.8,0.2,2.2-0.6c0.4-0.8,0.2-1.8-0.6-2.2C155.5,6.8,154.5,7.1,154.1,7.8z M110.4,114.5l9-30.8h-0.5
		c-2.6,0-4.9,1.7-5.7,4.2l-7.7,26.5L110.4,114.5L110.4,114.5z M295.6,93.5l-28.7,2.7l-1,0.1l-8.2,9.3l-0.2,0.2l10.3-0.9l1.1-0.1
		l21-1.8l6.5-0.6v-9L295.6,93.5z M160.2,7.8c-0.4,0.8-0.2,1.8,0.6,2.2c0.8,0.4,1.8,0.2,2.2-0.6s0.2-1.8-0.6-2.2
		C161.6,6.8,160.6,7.1,160.2,7.8z M266.6,68.1l0.5-0.1c5-1,7.7-4.2,8.5-5.2c-1-0.8-4.3-3.1-8.5-2.7c0,0,0,0,0,0
		c0.5,1,0.8,2.2,0.8,3.5c0,1.8-0.6,3.5-1.5,4.5C266.4,68.2,266.5,68.2,266.6,68.1z M166.3,7.8c-0.4,0.8-0.2,1.8,0.6,2.2
		c0.8,0.4,1.8,0.2,2.2-0.6c0.4-0.8,0.2-1.8-0.6-2.2C167.7,6.8,166.7,7.1,166.3,7.8z M238,4.6h-86.7v0.1L238,4.6L238,4.6z
		 M259.4,74.3c0.5-1.5,1-3.2,1.8-5.2c0.9,0.2,1.8,0.3,2.8,0.3c0.6,0,1.2,0,1.8-0.1c0.3,0,0.6-0.1,0.9-0.1l0.2,0c0.1,0,0.2,0,0.3-0.1
		c6.5-1.3,9.3-5.9,9.4-6c0.1-0.2,0.1-0.5-0.1-0.6s-4.2-3.9-9.8-3.3c-0.1,0-0.2,0-0.3,0l-0.1,0c-0.4,0-0.7,0.1-1.1,0.2
		c0.2-0.3,0.3-0.7,0.5-1c0.2-0.4,0.4-0.8,0.5-1.2l0.1-0.2c0.1-0.3,0-0.5-0.2-0.7c0,0-0.1,0-0.1,0c0.1-0.2,0.2-0.4,0.3-0.6
		c4.8-0.5,7.4,1,7.8,1.3c0.1,0.2,0.3,0.3,0.5,0.3c0.3,0,0.5-0.2,0.5-0.5c0-0.2-0.2-0.4-0.3-0.5c-0.6-0.5-3.3-1.9-7.9-1.6
		c0,0,0,0,0,0c0.5-0.8,1-1.7,1.5-2.5c0,0,0,0,0,0c2.1-0.4,3.5-1.4,3.5-1.4s-1.8,3.3,0.6,4c2.3,0.7,8.9-0.7,8.9-0.7s-2.6,4.4-0.3,5.1
		c1.4,0.5,3.2-0.2,4.4-0.7c0.7-0.3,1.1-0.6,1.1-0.6l-0.4,2l-2.1,9.5c-0.5,0.2-0.9,0.3-0.9,0.4c-0.3,0.1-0.4,0.4-0.3,0.7
		c0.1,0.3,0.4,0.4,0.7,0.3c1.3-0.6,5.2-1.9,7.1-1c0.2,0.1,0.5,0.3,0.6,0.5c0.2,0.2,0.3,0.5,0.4,0.8c0,0,0,0,0,0.1
		c0.7,2.9-5.5,6.3-8,7.4c-0.3,0.1-0.4,0.4-0.3,0.7c0.1,0.2,0.3,0.3,0.5,0.3c0.1,0,0.1,0,0.2,0c0,0,0.2-0.1,0.4-0.2v4.2
		c0,3.5,2.8,6.3,6.3,6.3c1.9,0,3.7-0.2,5.4-0.7l0,0l-0.2,3.8l-28.9,2.7l-0.1-1.1c0.2-0.1,0.3-0.2,0.3-0.5v-3.8c0.5,0,0.9,0,1.4,0
		c0.3,0,0.5-0.2,0.5-0.5c0-0.3-0.2-0.5-0.5-0.5c-4.4,0.3-7.4-0.6-8.9-2.6C257.7,84,257.7,80.1,259.4,74.3z M283.8,75.7
		c0.1,0.2,0.3,0.3,0.4,0.3c0.1,0,0.1,0,0.2-0.1c0.9-0.4,5.3-2.8,4.5-4.8c-0.1-0.3-0.4-0.4-0.6-0.3c-0.3,0.1-0.4,0.4-0.3,0.6
		c0.3,0.8-2.1,2.6-4,3.5C283.8,75.2,283.7,75.5,283.8,75.7z M260.8,80c1.1,0.4,2.1,0.5,3,0.5c2.9,0,5-1.5,5.1-1.6
		c0.2-0.2,0.3-0.5,0.1-0.7c-0.2-0.2-0.5-0.3-0.7-0.1c0,0-3.2,2.4-7.1,0.9c-0.3-0.1-0.5,0-0.6,0.3C260.4,79.7,260.5,79.9,260.8,80z
		 M167.7,127.1c-1.1,0.2-2,0.3-2.7,0.3c-0.1,0-0.2,0-0.3,0c-1.2,1.5-1.5,2.8-0.8,3.6c0.8,1.1,3.2,1.3,5.4,0.4c2.8-1.2,4-4.3,4.2-7.5
		C172.1,125.4,170.2,126.5,167.7,127.1z M166.5,133c-1,0-1.9-0.2-2.5-0.6c-1.1,1.5-1.3,2.7-0.7,3.5c0.8,1.1,3.2,1.3,5.4,0.4
		c2.5-1,3.7-3.6,4.1-6.3c-0.7,1.1-1.7,1.9-3,2.5C168.6,132.8,167.5,133,166.5,133z M175.1,196.8c0-2.3,1.3-4.3,3.1-5.5l-2.2-9.1
		l-7.7,3c-0.2,0.1-0.3,0-0.5-0.1c0,0-2.8-2-10-3.8c-8.6-2.1-13.1-2.1-13.8-1.2c-0.1,0.1-0.2,0.3,0.1,0.8c1.7,3.2,7.4,5.1,7.5,5.1
		c0.1,0,0.2,0.1,0.2,0.1l4,4.3c0.1,0.1,0.2,0.3,0.1,0.5s-0.2,0.3-0.3,0.4c-0.1,0-7.8,2.9-15.8,3.9c-2.6,0.3-5.2,0.4-7.4,0.4
		c-4.9,0.1-7.7,0.3-7.8,2.2c0,0.5,0.2,1,0.8,1.5c2.2,1.9,9.5,3,20.3,1.1c0.3,0,0.5,0.1,0.6,0.4c0.1,0.3-0.1,0.5-0.4,0.6
		c-3.8,0.7-7.5,1.1-10.7,1.1c-2.2,0-4.2-0.2-5.9-0.5c2.9,4,9.3,5.3,19.1,4.1c0.3,0,0.5,0.2,0.6,0.4c0,0.3-0.2,0.5-0.4,0.6
		c-2.3,0.3-4.5,0.4-6.5,0.4c-3.8,0-6.9-0.6-9.4-1.7c2.5,3.4,6.5,6.1,17.3,4.8c0.3,0,0.5,0.2,0.6,0.4c0,0.3-0.2,0.5-0.4,0.6
		c-2,0.3-3.8,0.4-5.3,0.4c-3.9,0-6.6-0.7-8.7-1.8c1.8,5.1,7.7,6.5,20.3,5l-3.3-8.8c-0.1-0.3,0-0.5,0.3-0.6c0.3-0.1,0.5,0,0.6,0.3
		l3.3,8.9l17-8.2l7-1.8l-0.4-1.7C177.7,202.9,175.1,200.1,175.1,196.8z M171.4,117.2c-4.9,0.9-8.3,3.9-9.1,6.3
		c-0.2,0.6-0.3,1.5,0.2,2.1c0.8,0.8,2.5,1,4.9,0.5c5.6-1.3,8.1-5.8,8-9.7c0-2.6-1.1-4.5-2.8-4.9c0,0,0,0,0,0c-0.2,0-0.3-0.2-0.4-0.3
		l-1.5,5.2c0.1,0,0.3-0.1,0.4-0.1c0.1,0,0.2,0,0.2,0c0.2,0,0.3,0.2,0.4,0.4C171.8,116.9,171.6,117.2,171.4,117.2z M97.2,33.8
		c1.4-0.5,2.3-1.1,2.7-1.4c-0.3-0.6-1-1.8-2.3-3c0,0,0,0,0,0c0.1,0.4,0.1,0.9,0.1,1.3C97.7,31.8,97.5,32.9,97.2,33.8
		C97.2,33.8,97.2,33.8,97.2,33.8z M183,191.4c-0.4-0.1-0.8-0.1-1.2-0.1c-3.1,0-5.7,2.5-5.7,5.5s2.5,5.5,5.7,5.5
		c1.4,0,2.7-0.5,3.7-1.3l-0.3-1.5L183,191.4z M162,140.5c0.8,1.1,3.2,1.3,5.4,0.4c2.2-0.9,3.4-3,3.9-5.4c-0.6,0.7-1.4,1.3-2.4,1.7
		c-1.1,0.5-2.2,0.7-3.2,0.7c-1.2,0-2.2-0.3-2.9-0.9C161.7,138.4,161.4,139.7,162,140.5z M90.1,34C90.1,34,90.1,34,90.1,34
		c-0.4-1-0.6-2.1-0.6-3.3c0-1.8,0.5-3.4,1.2-4.6l0,0c-4.4-0.5-7.8,1.9-8.8,2.7C82.6,29.9,85.2,33,90.1,34z M67.5,34.5
		c0.2-0.5,0.5-0.9,1-1.1c2.1-0.9,6.3,1,6.3,1c0.2,0.1,0.6,0,0.7-0.2c0.1-0.2,0-0.5-0.2-0.7c-0.1,0-0.4-0.2-0.9-0.4
		c0.8-1.5,3.3-6.4,4.4-12.9c0,0,1.8,1,4.2,1.8c0,0,0,0,0,0c-0.5,0.4-1,0.8-1.4,1.2c-0.2,0.2-0.2,0.5,0,0.7c0.1,0.1,0.2,0.2,0.4,0.2
		c0.1,0,0.2,0,0.3-0.1c0.6-0.6,1.2-1.1,1.9-1.6c2.6,0.7,5.6,1.1,8,0c1.7-0.8,2.6-1.7,3-2.7c1.5,0.4,3,1.2,4.5,2.5
		c0.2,0.2,0.5,0.2,0.7,0c0.2-0.2,0.2-0.5,0-0.7c-1.5-1.4-3.2-2.2-4.9-2.7c0,0,0,0,0,0c0.2-1.6-0.6-3.1-0.6-3.2
		c0.3,0.1,9.1,3.8,15.3,3.6c-2.3,0.4-3.4,2-3.4,2.1c-0.1,0.2-0.1,0.5,0.2,0.7c0.1,0,0.2,0.1,0.3,0.1c0.2,0,0.3-0.1,0.4-0.2
		c0,0,0.6-1,1.9-1.5c0,0,0,0,0,0.1c0,0,0.5,2.4,1.1,5.8c-0.5,0.5-1,1.1-1.4,1.7c-1.7,2.5-2,4.7-2,4.8c0,0.2,0.1,0.4,0.2,0.5
		c0.1,0,1.5,0.9,4.1,1h0.2c1.2,8.8,1.3,14.9,0.2,17.6c-1.1,3-3.8,4.6-5.9,5.4c-4.3,1.7-10.1,1.5-13.7-0.3c-0.2-0.1-0.6,0-0.7,0.2
		c-0.1,0.2,0,0.5,0.2,0.7c2.1,1.1,4.8,1.6,7.5,1.6c0.5,0,1,0,1.5-0.1c0,0,0,0,0,0c0,0,0,0.1,0,0.1v4.5c0,0.3,0.2,0.5,0.5,0.5
		c0.1,0,0.1,0,0.2,0v1.1l-6,3.8l-22-10.1l0.1-0.8c0.1,0.2,0.3,0.3,0.5,0.3c0.3,0,0.5-0.2,0.5-0.5V45.1c0-0.1-0.1-0.3-0.2-0.4
		C72.3,42.8,66.7,37.2,67.5,34.5z M101.4,42.6c0.7,0.2,2.4,0.5,3.9,0.5c1.2,0,2.4-0.2,2.8-0.9c0.5-0.8,0-2.4-0.8-4.8
		c-0.7-2.3-1.7-5.1-1.9-8c0-0.3-0.3-0.5-0.5-0.5c-0.3,0-0.5,0.3-0.5,0.5c0.2,3,1.2,5.9,1.9,8.2c0.5,1.7,1.1,3.6,0.9,4
		c-0.4,0.6-3.2,0.5-5.6,0c-0.3-0.1-0.5,0.1-0.6,0.4S101.1,42.5,101.4,42.6z M101,47.6c0-0.3-0.3-0.5-0.6-0.4c0,0-3.9,0.4-7.5-2
		c-0.2-0.2-0.5-0.1-0.7,0.1c-0.2,0.2-0.1,0.5,0.1,0.7c2.9,1.9,5.8,2.2,7.3,2.2c0.5,0,0.9,0,0.9,0C100.8,48.1,101,47.9,101,47.6z
		 M80.8,29c0.1,0.2,2.9,4.8,9.4,6c0.1,0,0.2,0,0.3,0l0.2,0c1,0.2,1.9,0.2,2.8,0.2c1.3,0,2.5-0.2,3.6-0.5c2.5-0.7,3.7-1.9,3.8-2
		c0.1-0.1,0.2-0.4,0.1-0.5c0-0.1-0.9-2.2-3.2-4.1c-1.6-1.4-3.5-2.4-5.6-2.9c-0.4-0.1-0.8-0.2-1.1-0.2c-5.9-0.8-10,3.1-10.2,3.2
		C80.7,28.6,80.7,28.8,80.8,29z M73.6,41.3c0.1,0.1,0.2,0.1,0.3,0.1c0.1,0,0.3-0.1,0.4-0.2c0.2-0.2,0.2-0.5,0-0.7
		c-1.4-1.3-3.5-3.7-3.2-4.8c0-0.2,0.1-0.4,0.6-0.5c0.3-0.1,0.4-0.4,0.3-0.6c-0.1-0.3-0.4-0.4-0.6-0.3c-0.9,0.3-1.1,0.9-1.2,1.3
		C69.6,37.6,73.1,40.9,73.6,41.3z M113.2,123.9c-5,0.5-11.2,1-16.7,0.3c-0.3,0-0.5-0.3-0.4-0.6c0-0.3,0.3-0.5,0.6-0.4
		c0.9,0.1,1.7,0.2,2.6,0.2l0.6-1.9l0,0l0.2-0.7l1.4-4.6c-6.7,0.7-12,5.3-14.4,7.8c-0.6,0.7-1,1.2-1,1.2l-0.1,0
		c-0.1,0.2-0.2,0.3-0.2,0.3c-0.1,0.1-0.2,0.1-0.3,0.2l-8.1,2.4l-3.9,26l3.9-0.9c-0.1-0.1-0.1-0.2-0.1-0.4c0-0.3,0.3-0.5,0.5-0.5
		c0.1,0,11.1,1,18-0.3c5.9-1.1,13.9-5.2,16.8-9.1c-3.5,1.7-10.2,2.6-10.5,2.7c0,0,0,0-0.1,0c-0.2,0-0.5-0.2-0.5-0.4
		c0-0.3,0.2-0.5,0.4-0.6c0.1,0,7.5-1.1,10.7-2.8c3.2-1.8,5.2-4.5,5.4-7.4c-0.7,0.4-1.5,0.8-2.3,1.2c-4.4,2-12.6,3.8-13,3.9
		c0,0-0.1,0-0.1,0c-0.2,0-0.4-0.2-0.5-0.4c-0.1-0.3,0.1-0.5,0.4-0.6c0.1,0,8.4-1.9,12.8-3.8c4.1-1.8,5.3-3.6,5.8-6.1
		c-1.2,0.4-2.3,0.6-2.9,0.7c-4.6,0.8-16,3.4-16.1,3.4c0,0-0.1,0-0.1,0c-0.2,0-0.4-0.2-0.5-0.4c-0.1-0.3,0.1-0.5,0.4-0.6
		c0.1,0,11.6-2.6,16.1-3.4c1.3-0.2,2.5-0.6,3.5-1c0,0,0,0,0,0c1.5-0.6,2.4-1.3,2.6-2c0.1-0.2,0.2-0.6-0.6-1.4
		C122.5,123,118.2,123.4,113.2,123.9z M109.8,28.8C109.8,28.8,109.8,28.8,109.8,28.8c-0.9,1.5-1.3,2.9-1.4,3.5
		c0.5,0.2,1.5,0.6,2.9,0.7c0,0,0,0,0,0c-0.5-0.8-1-1.8-1.3-2.9C109.9,29.6,109.8,29.2,109.8,28.8z M89.6,78.5l3.8-6L95,70l0,0
		l-21.5-9.8l-1.4-0.7L66,66.1l0.6,0.3l5.9,3.1l3.6,1.9L89.6,78.5z"/>
</g>
<g id="change5_1">
	<path class="st3" d="M101,42c0.1-0.3,0.3-0.5,0.6-0.4c2.4,0.5,5.2,0.6,5.6,0c0.3-0.4-0.3-2.3-0.9-4c-0.8-2.3-1.7-5.2-1.9-8.2
		c0-0.3,0.2-0.5,0.5-0.5c0.3,0,0.5,0.2,0.5,0.5c0.2,2.9,1.1,5.7,1.9,8c0.8,2.4,1.3,4,0.8,4.8c-0.4,0.7-1.5,0.9-2.8,0.9
		c-1.5,0-3.1-0.3-3.9-0.5C101.1,42.5,101,42.3,101,42z M73.7,45.4v5.3v7.6c0,0.1,0,0.1,0,0.2c0.1,0.2,0.3,0.3,0.5,0.3
		c0.3,0,0.5-0.2,0.5-0.5V45.1c0-0.1-0.1-0.3-0.2-0.4c-2.2-1.9-7.9-7.6-7-10.3c0.2-0.5,0.5-0.9,1-1.1c2.1-0.9,6.3,1,6.3,1
		c0.2,0.1,0.6,0,0.7-0.2c0.1-0.2,0-0.5-0.2-0.7c-0.1,0-0.4-0.2-0.9-0.4c-1.5-0.6-4.4-1.5-6.2-0.6c-0.1,0-0.2,0.1-0.2,0.1
		c-0.7,0.3-1.1,0.9-1.3,1.6C65.4,37.8,72.3,44.1,73.7,45.4z M85.4,125.6c0.1,0,0.2-0.1,0.3-0.2c0,0,0.1-0.1,0.2-0.3
		c0.2-0.3,0.6-0.7,1.1-1.2c2.4-2.5,7.6-7.1,14.4-7.8c0.2,0,0.5-0.1,0.7-0.1c0.3,0,0.5-0.3,0.5-0.5c0-0.3-0.3-0.5-0.5-0.5
		c-0.1,0-0.2,0-0.4,0c-9.2,0.7-15.7,8.4-16.7,9.6l-7.5,2.2l0.2-1.6c0-0.2,0-0.3-0.2-0.4c-0.1-0.1-0.3-0.2-0.4-0.1l-42.5,9.6
		l10.8-32.9c0.1-0.3-0.1-0.5-0.3-0.6c-0.3-0.1-0.5,0.1-0.6,0.3l-11.1,33.7c-0.1,0.2,0,0.4,0.1,0.5c0.1,0.1,0.3,0.2,0.5,0.2l42.6-9.6
		l-4.5,30.6c-2.4,0.9-20.6,7.8-33.3,9.9c-0.3,0-0.5,0.3-0.4,0.6c0,0.2,0.3,0.4,0.5,0.4c0,0,0.1,0,0.1,0c13.7-2.2,33.6-10,33.8-10
		c0.2-0.1,0.3-0.2,0.3-0.4l0.4-2.8l3.9-26L85.4,125.6z M125.2,125.8c0.2-0.6,0.2-1.4-0.8-2.4c-1.5-1.5-5.6-1.1-11.3-0.6
		c-4.2,0.4-9.1,0.8-13.9,0.6c0,0,0,0,0,0c-0.9-0.1-1.8-0.1-2.6-0.2c-0.3,0-0.5,0.2-0.6,0.4c0,0.3,0.2,0.5,0.4,0.6
		c5.5,0.7,11.7,0.1,16.7-0.3c5-0.5,9.3-0.9,10.5,0.3c0.8,0.8,0.6,1.2,0.6,1.4c-0.2,0.7-1.2,1.4-2.6,2c0,0,0,0,0,0
		c-1,0.4-2.2,0.7-3.5,1c-4.6,0.8-16,3.4-16.1,3.4c-0.3,0.1-0.4,0.3-0.4,0.6c0.1,0.2,0.3,0.4,0.5,0.4c0,0,0.1,0,0.1,0
		c0.1,0,11.5-2.6,16.1-3.4c0.6-0.1,1.7-0.3,2.9-0.7c-0.5,2.5-1.7,4.3-5.8,6.1c-4.3,1.9-12.7,3.8-12.8,3.8c-0.3,0.1-0.4,0.3-0.4,0.6
		c0.1,0.2,0.3,0.4,0.5,0.4c0,0,0.1,0,0.1,0c0.3-0.1,8.5-1.9,13-3.9c0.9-0.4,1.7-0.8,2.3-1.2c-0.2,2.9-2.2,5.6-5.4,7.4
		c-3.2,1.7-10.6,2.8-10.7,2.8c-0.3,0-0.5,0.3-0.4,0.6c0,0.2,0.2,0.4,0.5,0.4c0,0,0,0,0.1,0c0.3,0,6.9-1,10.5-2.7
		c-2.9,3.8-10.9,8-16.8,9.1c-6.9,1.3-17.9,0.3-18,0.3c-0.3,0-0.5,0.2-0.5,0.5c0,0.1,0,0.3,0.1,0.4c0.1,0.1,0.2,0.2,0.3,0.2
		c0.3,0,4.3,0.4,8.9,0.4c1.2,0,2.5,0,3.8-0.1c1.9-0.1,3.8-0.3,5.5-0.6c6.9-1.3,16.5-6.4,18.3-11c3.1-2.1,4.8-5.1,4.8-8.2
		c1.8-1.4,2.7-3.1,3.1-5.5C123.6,127.8,124.8,126.9,125.2,125.8z M176.5,116.4c0,2.1-0.6,4.4-2.1,6.4c0.1,1.7-0.1,3.4-0.7,5
		c0.1,2-0.3,4.1-1.2,5.9c-0.2,3.4-1.6,6.8-4.8,8.1c-1.1,0.5-2.2,0.7-3.2,0.7c-0.5,0-0.9-0.1-1.4-0.2c-0.8-0.2-1.6-0.6-2-1.2
		c-0.5-0.7-1.1-2.3,0.9-5c-0.4-0.8-0.6-2.2,1-4.4c0,0-0.1,0-0.1-0.1c-0.5-0.7-1-2.1,0.5-4.4c-0.9-0.2-1.4-0.6-1.8-1
		c-0.7-0.8-0.9-1.9-0.4-3.1c0.8-2.5,4.1-5.7,9.4-6.9c0.1,0,0.3-0.1,0.4-0.1c0.1,0,0.2,0,0.2,0c0.2,0,0.3,0.2,0.4,0.4
		c0.1,0.3-0.1,0.5-0.4,0.6c-4.9,0.9-8.3,3.9-9.1,6.3c-0.2,0.6-0.3,1.5,0.2,2.1c0.8,0.8,2.5,1,4.9,0.5c5.6-1.3,8.1-5.8,8-9.7
		c0-2.6-1.1-4.5-2.8-4.9c0,0,0,0,0,0c-0.2,0-0.3-0.2-0.4-0.3c0-0.1,0-0.2,0-0.2c0-0.1,0.1-0.2,0.2-0.3c0.1-0.1,0.3-0.2,0.4-0.1
		C175.1,111,176.5,113.3,176.5,116.4z M171.4,135.5c-0.6,0.7-1.4,1.3-2.4,1.7c-1.1,0.5-2.2,0.7-3.2,0.7c-1.2,0-2.2-0.3-2.9-0.9
		c-1.1,1.5-1.4,2.8-0.8,3.6c0.8,1.1,3.2,1.3,5.4,0.4C169.7,140,170.9,137.8,171.4,135.5z M172.7,129.9c-0.7,1.1-1.7,1.9-3,2.5
		c-1.1,0.5-2.2,0.7-3.2,0.7c-1,0-1.9-0.2-2.5-0.6c-1.1,1.5-1.3,2.7-0.7,3.5c0.8,1.1,3.2,1.3,5.4,0.4
		C171.1,135.2,172.4,132.6,172.7,129.9z M173.5,123.9c-1.4,1.4-3.3,2.6-5.7,3.1c-1.1,0.2-2,0.3-2.7,0.3c-0.1,0-0.2,0-0.3,0
		c-1.2,1.5-1.5,2.8-0.8,3.6c0.8,1.1,3.2,1.3,5.4,0.4C172.1,130.2,173.4,127.1,173.5,123.9z M71.6,35.2c0.3-0.1,0.4-0.4,0.3-0.6
		c-0.1-0.3-0.4-0.4-0.6-0.3c-0.9,0.3-1.1,0.9-1.2,1.3c-0.4,2.1,3.1,5.4,3.5,5.7c0.1,0.1,0.2,0.1,0.3,0.1c0.1,0,0.3-0.1,0.4-0.2
		c0.2-0.2,0.2-0.5,0-0.7c-1.4-1.3-3.5-3.7-3.2-4.8C71,35.6,71.1,35.4,71.6,35.2z M80.8,29c-0.1-0.2-0.1-0.5,0.1-0.6
		c0.2-0.2,4.3-4,10.2-3.2c0.3,0,0.7,0.1,1.1,0.2c2.1,0.5,4,1.5,5.6,2.9c2.2,2,3.1,4.1,3.2,4.2c0.1,0.2,0,0.4-0.1,0.5
		c-0.1,0-1.2,1.3-3.8,2c-1.1,0.3-2.3,0.5-3.6,0.5c-0.9,0-1.8-0.1-2.8-0.2l-0.2,0c-0.1,0-0.2,0-0.3,0C83.7,33.8,80.9,29.2,80.8,29z
		 M97.7,30.7c0,1.1-0.2,2.2-0.5,3.1c0,0,0,0,0,0c1.4-0.5,2.3-1.1,2.7-1.4c-0.3-0.6-1-1.8-2.3-3c0,0,0,0,0,0
		C97.7,29.8,97.7,30.3,97.7,30.7z M81.9,28.8c0.8,1,3.3,4.1,8.2,5.2c0,0,0,0,0,0c-0.4-1-0.6-2.1-0.6-3.3c0-1.8,0.5-3.4,1.2-4.6l0,0
		C86.3,25.6,82.9,28,81.9,28.8z M81.9,23.9c0.1,0,0.2,0,0.3-0.1c0.6-0.6,1.2-1.1,1.9-1.6c3.1-2.3,7.1-3.8,11-2.7
		c1.5,0.4,3,1.2,4.5,2.5c0.2,0.2,0.5,0.2,0.7,0c0.2-0.2,0.2-0.5,0-0.7c-1.5-1.4-3.2-2.2-4.9-2.7c-4.3-1.1-8.9,0.5-12.5,3.3
		c-0.5,0.4-1,0.8-1.4,1.2c-0.2,0.2-0.2,0.5,0,0.7C81.7,23.9,81.8,23.9,81.9,23.9z M106.7,21c0.1-0.1,1.1-1.7,3.4-2.1c0,0,0,0,0,0
		c0.2,0,0.3,0,0.5-0.1c0.1,0,0.1,0,0.2,0c0.2,0.1,0.3,0.2,0.4,0.4c0,0.3-0.2,0.5-0.5,0.5c-0.1,0-0.2,0-0.3,0c0,0,0,0.1,0.1,0.1
		c0,0,0.5,2.5,1.1,6.1v0c0.4,2.4,0.8,5,1.1,7.3v0c1.3,9.3,1.4,15.6,0.2,18.5c-1,2.6-3.2,4.7-6.5,5.9c-1,0.4-2,0.7-3.1,0.9
		c-0.5,0.1-1,0.2-1.5,0.2c0,0,0,0,0,0c0,0.1,0.1,0.1,0.1,0.2v4.5c0,0.2-0.1,0.4-0.3,0.5c0,0-0.1,0-0.2,0c-0.3,0-0.5-0.2-0.5-0.5
		v-4.5c0-0.1,0-0.1,0-0.1c0,0,0,0,0,0c-0.5,0-1,0.1-1.5,0.1c-2.8,0-5.4-0.5-7.5-1.6c-0.2-0.1-0.3-0.4-0.2-0.7
		c0.1-0.2,0.4-0.3,0.7-0.2c3.6,1.9,9.4,2,13.7,0.3c2.1-0.8,4.8-2.4,5.9-5.4c1-2.7,0.9-8.8-0.2-17.6h-0.2c-2.6,0-4.1-0.9-4.1-1
		c-0.2-0.1-0.3-0.3-0.2-0.5c0-0.1,0.3-2.3,2-4.8c0.4-0.6,0.9-1.1,1.4-1.7c-0.6-3.4-1.1-5.8-1.1-5.8c0,0,0-0.1,0-0.1
		c-1.3,0.5-1.9,1.4-1.9,1.5c-0.1,0.1-0.3,0.2-0.4,0.2c-0.1,0-0.2,0-0.3-0.1C106.7,21.6,106.6,21.2,106.7,21z M111.3,32.9
		c-0.5-0.8-1-1.8-1.3-2.9c-0.1-0.4-0.2-0.9-0.2-1.3c0,0,0,0,0,0c-0.9,1.5-1.3,2.9-1.4,3.5C108.8,32.5,109.8,32.9,111.3,32.9
		C111.3,32.9,111.3,32.9,111.3,32.9z M100.4,47.2c0,0-3.9,0.4-7.5-2c-0.2-0.2-0.5-0.1-0.7,0.1c-0.2,0.2-0.1,0.5,0.1,0.7
		c2.9,1.9,5.8,2.2,7.3,2.2c0.5,0,0.9,0,0.9,0c0.3,0,0.5-0.3,0.4-0.6C101,47.3,100.7,47.1,100.4,47.2z M255.7,72.8
		c0-0.4-0.1-1.5,4-6.2c1.1-1.2,2-2.2,2.4-2.6l0.1-0.1v0c0.4-1,0.8-2,1.3-3l0.5-1.1c0,0,0,0,0,0c0.3-0.7,0.6-1.3,0.9-2
		c0.2-0.4,0.4-0.8,0.5-1.2l0.1-0.2c0.1-0.2,0.3-0.3,0.5-0.3c0,0,0.1,0,0.1,0c0.2,0.1,0.4,0.4,0.2,0.7l-0.1,0.2
		c-0.2,0.4-0.4,0.8-0.5,1.2c-0.2,0.3-0.3,0.7-0.5,1c0.4-0.1,0.8-0.2,1.1-0.2l0.1,0c0.1,0,0.2,0,0.3,0c5.6-0.6,9.6,3.1,9.8,3.3
		s0.2,0.4,0.1,0.6c-0.1,0.2-2.9,4.8-9.4,6c-0.1,0-0.2,0-0.3,0.1l-0.2,0c-0.3,0.1-0.6,0.1-0.9,0.1c-0.6,0.1-1.2,0.1-1.8,0.1
		c-1,0-1.9-0.1-2.8-0.3c-0.8,2-1.3,3.7-1.8,5.2c-1.7,5.8-1.7,9.7,0.1,12c1.6,2,4.5,2.8,8.9,2.6c0.3,0,0.5,0.2,0.5,0.5
		c0,0.3-0.2,0.5-0.5,0.5c-0.5,0-0.9,0-1.4,0v3.8c0,0.2-0.1,0.4-0.3,0.5c0,0-0.1,0-0.2,0c-0.3,0-0.5-0.2-0.5-0.5v-1.5v-2.3
		c-3.5-0.1-5.9-1.1-7.4-3c-2-2.5-2.1-6.4-0.4-12.3c-0.5-0.1-1.3-0.4-2.2-1.1C255.9,73.3,255.8,73.1,255.7,72.8z M266.3,68.2
		c0.1,0,0.2,0,0.3,0l0.5-0.1c5-1,7.7-4.2,8.5-5.2c-1-0.8-4.3-3.1-8.5-2.7c0,0,0,0,0,0c0.5,1,0.8,2.2,0.8,3.5
		C267.8,65.5,267.2,67.1,266.3,68.2z M256.7,72.7c0.8,0.6,1.4,0.8,1.8,0.9c0.5-1.6,1.1-3.3,1.8-5.3c0-0.1,0.1-0.2,0.1-0.3
		c0.2-0.5,0.4-1,0.6-1.5c-0.2,0.2-0.4,0.4-0.6,0.7C256.5,71.8,256.7,72.7,256.7,72.7z M283.3,70.4c1.3-0.6,5.2-1.9,7.1-1
		c0.2,0.1,0.5,0.3,0.6,0.5c0.2,0.2,0.3,0.5,0.4,0.8c0,0,0,0,0,0.1c0.7,2.9-5.5,6.3-8,7.4c-0.3,0.1-0.4,0.4-0.3,0.7
		c0.1,0.2,0.3,0.3,0.5,0.3c0.1,0,0.1,0,0.2,0c0,0,0.2-0.1,0.4-0.2c1.9-0.9,9.2-4.5,8.2-8.4c-0.2-0.9-0.8-1.5-1.6-1.9
		c-2-1-5.4,0-7,0.6c-0.5,0.2-0.9,0.3-0.9,0.4c-0.3,0.1-0.4,0.4-0.3,0.7C282.8,70.4,283,70.6,283.3,70.4z M284,75.1
		c-0.2,0.1-0.4,0.4-0.2,0.7c0.1,0.2,0.3,0.3,0.4,0.3c0.1,0,0.1,0,0.2-0.1c0.9-0.4,5.3-2.8,4.5-4.8c-0.1-0.3-0.4-0.4-0.6-0.3
		c-0.3,0.1-0.4,0.4-0.3,0.6C288.4,72.4,285.9,74.1,284,75.1z M266.3,55.6C266.3,55.6,266.3,55.6,266.3,55.6c4.8-0.5,7.4,1,7.8,1.3
		c0.1,0.2,0.3,0.3,0.5,0.3c0.3,0,0.5-0.2,0.5-0.5c0-0.2-0.2-0.4-0.3-0.5c-0.6-0.5-3.3-1.9-7.9-1.6c-0.2,0-0.4,0-0.7,0
		c-0.3,0-0.5,0.3-0.4,0.5C265.7,55.4,266,55.6,266.3,55.6z M268.2,78.2c0,0-3.2,2.4-7.1,0.9c-0.3-0.1-0.5,0-0.6,0.3
		c-0.1,0.3,0,0.5,0.3,0.6c1.1,0.4,2.1,0.5,3,0.5c2.9,0,5-1.5,5.1-1.6c0.2-0.2,0.3-0.5,0.1-0.7C268.8,78.1,268.5,78,268.2,78.2z
		 M262.2,153.4l-16.5,29.9c-4.3,7.7-11.5,13.5-20,15.9L223,200l-35,10c0,0-0.1,0-0.1,0c-0.1,0-0.2,0-0.3-0.1
		c-0.1-0.1-0.2-0.2-0.2-0.3l-0.9-3.8l-4.6,1.1l-0.2-1.1l-6.8,1.7l-17.4,8.4c0,0,0,0,0,0c0,0,0,0,0,0c0,0,0,0-0.1,0c0,0,0,0-0.1,0
		c-3.4,0.4-6.4,0.7-8.9,0.7c-7.9,0-11.9-2.1-13.2-6.7c-0.1-0.2,0-0.4,0.1-0.5c-1.7-1.1-2.9-2.6-3.9-4.1c-0.1-0.1-0.1-0.3,0-0.4
		c-1.3-0.8-2.4-1.8-3.1-3c-0.1-0.1-0.1-0.2-0.1-0.3c-1.4-0.4-2.6-0.9-3.3-1.6c-0.8-0.6-1.1-1.4-1.1-2.3c0.1-3,3.9-3.1,8.8-3.2
		c2.2-0.1,4.7-0.1,7.3-0.4c6.5-0.8,12.8-2.9,14.9-3.6l-3.4-3.6c-0.9-0.3-6.2-2.2-7.9-5.5c-0.5-0.9-0.3-1.6,0-1.9
		c1.6-2,10-0.3,14.9,0.9c6.3,1.6,9.3,3.3,10.1,3.8l7.6-3l-0.3-1.1l3.9-1.7l3.5,13.1c-0.4-0.1-0.8-0.1-1.2-0.1
		c-3.1,0-5.7,2.5-5.7,5.5s2.5,5.5,5.7,5.5c1.4,0,2.7-0.5,3.7-1.3l-0.3-1.5l0,0c-0.1-0.3,0.1-0.5,0.4-0.6c0.3-0.1,0.5,0.1,0.6,0.4
		l2.2,9.7l37.1-10.6c8.2-2.3,15.3-8,19.4-15.5l16.5-29.9c0.1-0.2,0.4-0.3,0.7-0.2C262.2,152.8,262.3,153.1,262.2,153.4z
		 M181.5,204.9l-0.4-1.7c-3.3-0.3-5.9-3.1-5.9-6.4c0-2.3,1.3-4.3,3.1-5.5l-2.2-9.1l-7.7,3c-0.2,0.1-0.3,0-0.5-0.1c0,0-2.8-2-10-3.8
		c-8.6-2.1-13.1-2.1-13.8-1.2c-0.1,0.1-0.2,0.3,0.1,0.8c1.7,3.2,7.4,5.1,7.5,5.1c0.1,0,0.2,0.1,0.2,0.1l4,4.3
		c0.1,0.1,0.2,0.3,0.1,0.5s-0.2,0.3-0.3,0.4c-0.1,0-7.8,2.9-15.8,3.9c-2.6,0.3-5.2,0.4-7.4,0.4c-4.9,0.1-7.7,0.3-7.8,2.2
		c0,0.5,0.2,1,0.8,1.5c2.2,1.9,9.5,3,20.3,1.1c0.3,0,0.5,0.1,0.6,0.4c0.1,0.3-0.1,0.5-0.4,0.6c-3.8,0.7-7.5,1.1-10.7,1.1
		c-2.2,0-4.2-0.2-5.9-0.5c2.9,4,9.3,5.3,19.1,4.1c0.3,0,0.5,0.2,0.6,0.4c0,0.3-0.2,0.5-0.4,0.6c-2.3,0.3-4.5,0.4-6.5,0.4
		c-3.8,0-6.9-0.6-9.4-1.7c2.5,3.4,6.5,6.1,17.3,4.8c0.3,0,0.5,0.2,0.6,0.4c0,0.3-0.2,0.5-0.4,0.6c-2,0.3-3.8,0.4-5.3,0.4
		c-3.9,0-6.6-0.7-8.7-1.8c1.8,5.1,7.7,6.5,20.3,5l-3.3-8.8c-0.1-0.3,0-0.5,0.3-0.6c0.3-0.1,0.5,0,0.6,0.3l3.3,8.9l17-8.2
		L181.5,204.9z M231.2,132.5L231.2,132.5l-18.4,27.7l-0.1,0.1c-0.2,0.2-0.1,0.5,0.1,0.7c0.1,0.1,0.2,0.1,0.3,0.1
		c0.2,0,0.3-0.1,0.4-0.2L232,133c0.2-0.2,0.1-0.5-0.1-0.7C231.6,132.2,231.3,132.3,231.2,132.5z M310.6,136.4
		c-0.1-0.1-0.3-0.2-0.4-0.1c-22.2,2.6-34,3.7-34.1,3.7c-0.3,0-0.5,0.3-0.5,0.5c0,0.3,0.3,0.5,0.5,0.5c0.1,0,11.7-1.1,33.5-3.6
		l-1.9,44c0,0.3,0.2,0.5,0.5,0.5c0,0,0,0,0,0c0.3,0,0.5-0.2,0.5-0.5c0,0,0,0,0,0l0,0l2-44.6C310.8,136.6,310.8,136.5,310.6,136.4z
		 M307.3,198l-56,12.3c-0.3,0.1-0.4,0.3-0.4,0.6c0.1,0.2,0.3,0.4,0.5,0.4c0,0,0.1,0,0.1,0l56-12.3c0.3-0.1,0.4-0.3,0.4-0.6
		C307.8,198.2,307.5,198,307.3,198z M150.7,44.8h83.5c0.3,0,0.5-0.2,0.5-0.5l0,0c0-0.3-0.2-0.5-0.5-0.5h-83V12.6v-8V4.6H238v0.1v8
		v9.6c0,0.3,0.2,0.5,0.5,0.5l0,0c0.3,0,0.5-0.2,0.5-0.5V4.1c0-0.3-0.2-0.5-0.5-0.5h-87.7c-0.3,0-0.5,0.2-0.5,0.5v40.2
		C150.2,44.6,150.5,44.8,150.7,44.8z M212.1,12.1h-49.6c-0.3,0-0.5,0.2-0.5,0.5l0,0c0,0.3,0.2,0.5,0.5,0.5h49.6
		c0.3,0,0.5-0.2,0.5-0.5l0,0C212.6,12.3,212.4,12.1,212.1,12.1z M238.5,26.5L238.5,26.5c-0.3,0-0.5,0.2-0.5,0.5v7.5
		c0,0.3,0.2,0.5,0.5,0.5l0,0c0.3,0,0.5-0.2,0.5-0.5V27C239,26.8,238.7,26.5,238.5,26.5z"/>
</g>
<g class="st4">
	<g>
		<g>
			<g>
				<g>
					<g>
						<g>
							<g>
								<g>
									<g>
										<g>
											<g>
												<g>
													<g>
														<g>
															<g>
																<g>
																	<g>
																		<g>
																			<g>
																				<g>
																					<g>
																						<g>
																							<g id="change1_1">
																								<path class="st0" d="M3.4,191.1h90.2v41.3H3.4V191.1z"/>
																							</g>
																						</g>
																					</g>
																				</g>
																			</g>
																		</g>
																	</g>
																</g>
															</g>
														</g>
													</g>
												</g>
											</g>
										</g>
									</g>
								</g>
							</g>
						</g>
					</g>
				</g>
			</g>
		</g>
	</g>
</g>
<g id="change2_2">
	<path class="st1" d="M28.6,191.7v40.7H3.5v-40.7H28.6z"/>
</g>
<g id="change5_2">
	<path class="st3" d="M94.1,191.1v18.7c0,0.3-0.2,0.5-0.5,0.5s-0.5-0.2-0.5-0.5v-18.2H29v28.5c0,0.3-0.2,0.5-0.5,0.5
		s-0.5-0.2-0.5-0.5v-28.5H3.9v40.3h6c0.3,0,0.5,0.2,0.5,0.5s-0.2,0.5-0.5,0.5H3.4c-0.3,0-0.5-0.2-0.5-0.5v-41.3
		c0-0.3,0.2-0.5,0.5-0.5h90.2C93.9,190.6,94.1,190.8,94.1,191.1z M93.6,222.9c-0.3,0-0.5,0.2-0.5,0.5v8.5H23.4
		c-0.3,0-0.5,0.2-0.5,0.5s0.2,0.5,0.5,0.5h70.3c0.3,0,0.5-0.2,0.5-0.5v-9C94.1,223.1,93.9,222.9,93.6,222.9z"/>
</g>
<g id="change1_5">
	<path class="st0" d="M7.5,198.7c0-0.3,0.2-0.5,0.5-0.5h16c0.3,0,0.5,0.2,0.5,0.5s-0.2,0.5-0.5,0.5H8C7.8,199.2,7.5,199,7.5,198.7z
		 M24.1,203.2H8c-0.3,0-0.5,0.2-0.5,0.5s0.2,0.5,0.5,0.5h16c0.3,0,0.5-0.2,0.5-0.5S24.4,203.2,24.1,203.2z M24.1,208.3H8
		c-0.3,0-0.5,0.2-0.5,0.5s0.2,0.5,0.5,0.5h16c0.3,0,0.5-0.2,0.5-0.5S24.4,208.3,24.1,208.3z M24.1,213.3H8c-0.3,0-0.5,0.2-0.5,0.5
		s0.2,0.5,0.5,0.5h16c0.3,0,0.5-0.2,0.5-0.5S24.4,213.3,24.1,213.3z"/>
</g>
<g id="change3_2">
	<path class="st5" d="M87.1,197.3v3.3H35.3v-3.3H87.1z M35.3,206.5h51.8v-3.3H35.3V206.5z M35.3,212.3h51.8V209H35.3V212.3z
		 M35.3,218.2H65v-3.3H35.3V218.2z"/>
</g>
</svg>
