<svg xmlns="http://www.w3.org/2000/svg" xmlns:xlink="http://www.w3.org/1999/xlink" preserveAspectRatio="xMidYMid meet" version="1.0" viewBox="-1.2 -0.6 467.6 490.8" zoomAndPan="magnify" style="fill: rgb(0, 0, 0);" original_string_length="19793"><g id="__id4730_sx0xqlbuzm"><path d="M422.7387,392.2404c-2.54,1.15-4.56,1.67-6.16,2.81c-3.24,2.3-6.15,5.05-9.36,7.4 c-22.83,16.71-49.18,22.74-76.71,23.83c-27.85,1.1-55.53,2.37-82.84,8.82c-29.51,6.97-58.15,16.26-85.5,29.28 c-4.8,2.28-6.36,1.82-8.62-2.8199c-22.47-46.26-45.08-92.46-67.83-138.58c-21.72-44.04-43.61-87.99-65.56-131.91 c-1.8799-3.7599-4.84-6.99-7.35-10.84c-0.8-1.35-1.55-2.32-2.3-3.29c-0.92-2.53-1.36-5.41-2.87-7.53c-3.44-4.85-1.65-7.84,2.71-10.5 c9.84-5.99,19.4301-12.43,29.4901-18.03c23.89-13.31,49.51-22.62,76.09-31.83c1.92-0.49,2.93-0.92,3.94-1.36 c0,0.01,0.02,0.07,0.47,0.07c1.3199-0.06,2.2,0.02,2.99-0.19c23.15-6.15,46.4-11.81,70.35-13.86c19.49-1.67,38.97-3.46,58.49-4.75 c8.74-0.58,17.57-0.09,26.37-0.09c10.3499,2.3199,15.6999,10.7198,21.2399,18.3698c12.758,17.6171,19.6534,38.577,28.0113,58.5035 c9.5235,24.4889,20.7326,48.3439,30.5537,72.699c10.1787,25.2419,20.3564,50.4874,31.0951,75.4977 c10.23,23.83,22.12,46.94,33.08,70.46C423.5287,386.5703,423.1687,389.3803,422.7387,392.2404z" style="fill: rgb(253, 244, 215);"/></g><g id="__id4731_sx0xqlbuzm"><path d="M262.3042,283.887c0.0235,2.4084-1.4092,3.868-2.8344,5.5855c-1.5445,1.8611-2.9713,3.8169-4.5375,5.6604 c-1.6386,1.9286-3.3304,4.0775-5.5554,5.36c-3.5202,2.0292-5.1172-1.0387-4.6422-4.3737c0.5729-4.0216,1.6461-7.9714,3.1845-11.731 c0.9755-2.384,2.2928-6.6934,5.2887-7.1237c2.3088-0.3316,4.8238,0.854,6.6475,2.1953 C261.4105,280.6036,262.2874,282.1714,262.3042,283.887z" style="fill: rgb(69, 51, 51);"/></g><g id="__id4732_sx0xqlbuzm"><path d="M10.2487,177.3103c1,0.61,1.75,1.58,2.21,3.21c0.58,3.56,1.09,6.63,2.37,9.34 c10.58,22.55,21.16,45.09,31.99,67.52c34.79,72.01,69.69,143.96,104.56,215.93c3.46,7.13,3.4,6.85,10.39,3.41 c17.28-8.52,34.31-17.66,52.1-24.97c34.75-14.28,71.89-17.04,108.82-20.31c10.62-0.94,21.41-0.65,31.86-2.46 c11-1.9,21.68-5.64,32.49-8.58c-4.88,2.54-9.49,6.35-14.67,7.41c-20.63,4.22-41.38,7.89-62.18,11.19 c-29.04,4.61-59.2,3.65-86.96,14.37c-20.02,7.73-38.84,18.58-58.15,28.15c-4.12,2.04-8.04,4.49-11.95,6.91 c-2.89,1.78-5.31,1.27-7.09-1.36c-2.57-3.8-5.19-7.63-7.23-11.73c-23.07-46.38-46.07-92.8-69.03-139.23 c-12.55-25.37-25.05-50.77-37.5-76.2c-10.32-21.08-20.38-42.29-30.93-63.25c-2.57-5.1-1.26-8.54,2.18-12.1 C5.7187,182.2904,7.8387,179.9704,10.2487,177.3103z" style="fill: rgb(131, 186, 160);"/></g><g id="__id4733_sx0xqlbuzm" style="fill: rgb(251, 174, 60);"><path d="M430.2101,91.2326c-14.5952-9.1549-29.1903-18.3098-43.7855-27.4646 c-0.6011-0.3771-1.2023-0.7542-1.8034-1.1312c-2.1298-1.3359-4.3442-2.5919-6.4091-4.0256 c-1.4822-1.0291-2.5779-2.6215-4.2682-1.1607c-1.7701,1.5297-3.2003,3.8676-4.7119,5.6625 c-1.6069,1.908-3.2216,3.8095-4.837,5.7103c-6.4628,7.6047-12.9464,15.1992-19.0263,23.1169 c-8.6984,11.3275-17.1608,22.8382-25.2881,34.5828c-8.1815,11.8229-16.0245,23.8833-23.4036,36.224 c-7.3539,12.2986-14.2482,24.877-20.5251,37.7603c-5.6081,11.5107-10.8954,23.1916-15.4077,35.1794 c-5.2255,13.8825-9.354,28.2759-12.8327,42.6298c-0.6705,2.767-0.6418,5.5325,1.22,7.9223 c2.3414,3.0054,6.4102,4.2251,10.1065,3.4795c3.9984-0.8065,7.9558-4.5652,10.8655-7.2035 c9.0861-8.2387,18.4616-16.0955,27.4299-24.4964c4.3095-4.037,8.4673-8.243,12.3454-12.6981c8.23-9.46,16.19-19.3,24.72-28.55 c10.14-10.98,19.81-22.38,29.2401-33.97c10.3799-12.75,21.18-25.16,31.64-37.84c10.82-13.11,21.32-26.56,30.39-40.96 c1.72-2.73,3.44-5.46,5.16-8.19c0.3071-0.4874,0.6321-1.0642,0.7864-1.6591c0.1537-0.5928,0.138-1.2035-0.2338-1.7616 C431.2468,91.8879,430.7207,91.5529,430.2101,91.2326z" style="fill: inherit;"/><path d="M466.2673,16.2907c-0.3312-4.6557-2.1271-9.4547-5.5814-12.6949 c-0.3491-0.3275-0.7112-0.6304-1.0847-0.9095c-4.0064-2.9942-9.3275-3.2581-14.0996-1.9042 c-3.9656,1.1251-7.5721,3.2397-11.0398,5.4683c-3.4316,2.2054-7.1591,4.1138-10.5118,6.3878 c-3.6055,2.4454-7.171,5.0721-10.6376,7.7318c-6.9937,5.366-13.4651,11.3717-20.0648,17.2071 c-0.8013,0.7085-1.6366,1.4677-1.9636,2.486c-0.7618,2.372,2.5847,4.0538,4.2409,4.9661 c12.6159,6.9492,25.7361,14.8081,36.4733,24.4716c2.2346,1.8619,4.2278,3.657,6.0274,5.9163 c0.9798,1.23,2.6837,4.0601,4.5601,2.5646c0.2786-0.222,0.4698-0.5327,0.6545-0.8371c5.0414-8.3058,9.5795-16.9169,13.5833-25.7695 c3.9745-8.788,7.718-17.8026,9.065-27.42c0.1755-1.2537,0.3069-2.5135,0.3855-3.777 C466.3542,18.8834,466.3594,17.5845,466.2673,16.2907z" style="fill: inherit;"/></g><g id="__id4734_sx0xqlbuzm"><path d="M459.5851,76.0087c-2.019-3.2327-5.7728-6.017-9.6838-4.0862c-1.7634,0.8708-3.14,2.3459-4.475,3.7893 c-0.696,0.7526-1.5296,1.9935-2.4373,2.7571c-1.3755-1.7945-3.2533-3.3228-4.8006-4.6684 c-3.2632-2.8379-6.6487-5.5322-10.1002-8.1368c-6.7657-5.1057-13.783-9.8638-20.702-14.7561 c-3.5812-2.5323-7.1677-5.0421-10.7203-7.5211c-2.8169-1.9656-5.6107-4.9852-9.301-3.532c-2.2081,0.8695-3.6075,2.8793-5.1209,4.594 c-1.6956,1.9211-3.5549,3.7192-5.3057,5.5948c-0.9366,1.0033-1.9006,2.0524-2.3182,3.3599 c-0.7164,2.2435,0.8049,3.7131,2.4672,4.9266c8.4643,6.1785,16.9019,12.3621,25.7224,18.0297 c2.2684,1.4576,4.5018,2.7321,6.7335,4.3156c1.707,1.2112,3.5485,2.2279,5.0709,3.6313c1.4346,1.3225,3.2855,2.2577,5.1328,2.8734 c5.7733,1.9244,11.7904-0.9308,17.5647,0.7568c1.649,0.4819,2.9175,0.9231,4.6077,0.1238c0.5339-0.2525,1.0073-0.6111,1.4202-1.0309 c-0.1262,0.2062-0.2488,0.4114-0.3597,0.6155c-1.7703,3.2574-3.2379,6.6719-5.0008,9.9369 c-3.3048,6.1205-7.5188,11.666-11.5411,17.3194c-3.7881,5.3243-7.3079,10.7643-10.9939,16.1887 c-6.8383,10.0632-14.3475,19.6694-22.4575,28.7389c-8.3599,9.349-15.5932,19.8267-23.147,29.8862 c-1.4484,1.9288-2.9226,4.6171-1.4866,6.5551c0.8229,1.1106,2.3843,1.4701,3.7408,1.2038 c5.7381-1.1264,9.9715-7.9891,13.4464-12.1023c4.0736-6.1104,9.803-11.4689,14.4043-17.2018 c5.0128-6.2457,10.2039-12.3459,15.1845-18.6196c7.9897-10.0651,15.6876-20.3257,23.2454-30.7161 c7.3599-10.1183,14.4856-20.5493,19.6068-32.011C459.4506,83.5336,461.6518,79.3178,459.5851,76.0087z" style="fill: rgb(131, 186, 160);"/></g><g id="__id4735_sx0xqlbuzm"><path d="M278.3587,88.4604c-8.62,0.41-17.45-0.07-26.21,0.51c-19.51,1.3-39,3.08-58.49,4.75 c-23.95,2.06-47.2,7.72-70.35,13.86c-0.79,0.21-1.66,0.13-3.02,0.18c10.86-3.99,22.11-8.46,33.67-11.84 c23.09-6.75,46.64-11.47,70.78-12.11c15.64-0.42,31.3-0.19,46.94,0.2C273.8887,84.0603,276.0187,86.6304,278.3587,88.4604z" style="fill: rgb(131, 186, 160);"/></g><g id="__id4736_sx0xqlbuzm"><path d="M119.4287,107.7104c-0.57,0.43-1.59,0.87-3.04,1.32C116.9487,108.5904,117.9687,108.1504,119.4287,107.7104z" style="fill: rgb(253, 244, 215);"/></g><g id="__id4737_sx0xqlbuzm"><path d="M394.9487,416.5303c0.21-0.47,0.78-0.91,1.74-1.25C396.4887,415.7703,395.9087,416.1603,394.9487,416.5303z" style="fill: rgb(253, 244, 215);"/></g><g id="__id4738_sx0xqlbuzm"><path d="M407.6687,47.0703c-3.05-1.98-5.77-4.2-8.59-6.85c13.47-15.29,27.92-28.98,47.35-35.96 c4.13-1.48,7.03,0.64,5.97,4.39c-0.39,1.4-2.33,2.6-3.82,3.41C432.5887,20.7803,419.3187,32.6703,407.6687,47.0703z" style="fill: rgb(251, 216, 118);"/></g><g id="__id4739_sx0xqlbuzm"><path d="M387.3387,420.1003c-11.12,3.23-21.8,6.96-32.79,8.87c-10.45,1.81-21.25,1.52-31.86,2.46 c-36.93,3.27-74.06,6.03-108.82,20.31c-17.78,7.31-34.82,16.45-52.1,24.97c-6.99,3.44-6.93,3.73-10.39-3.41 c-34.88-71.97-69.77-143.92-104.56-215.93c-10.83-22.42-21.41-44.97-31.99-67.52c-1.27-2.71-1.79-5.78-2.31-8.96 c2.8,3.19,5.76,6.42,7.64,10.18c21.96,43.92,43.85,87.87,65.56,131.91c22.75,46.13,45.36,92.32,67.83,138.58 c2.26,4.65,3.82,5.11,8.62,2.82c27.35-13.02,55.99-22.31,85.5-29.28c27.31-6.45,55-7.72,82.84-8.82 c27.53-1.09,53.88-7.12,76.71-23.83c3.21-2.35,6.12-5.1,9.36-7.4c1.59-1.13,3.62-1.66,5.88-2.42c-2.04,3.58-3.93,7.82-7.13,10.48 c-5.38,4.47-11.6,7.93-18.25,11.94c-1.35,0.56-1.93,1-2.5,1.44C392.2687,417.6104,389.9587,418.7103,387.3387,420.1003z" style="fill: rgb(69, 51, 51);"/></g><g id="__id4740_sx0xqlbuzm" style="fill: rgb(69, 51, 51);"><path d="M173.9911,192.9471c-7.93,7.16-10.21,16.81-11.61,27.4c-0.11,4.24-0.58,8.1,0.29,11.65 c0.6,2.42,3.02,6.11,4.7,6.15c2.77,0.0601,6.61-1.66,8.18-3.9c3.54-5.04,5.89-10.9,8.91-16.32c0.57-1.01,2.15-2.35,2.99-2.18 c6.42,1.29,13.1-1.39,19.42,1.26c0.29,0.12,0.9-0.53,1.75-1.06c-2.52-2.46-7.55-3.41-4.06-8.6c1.06-1.59-0.15-4.7-0.32-7.12 c-1.98,1.7-4.09,3.29-5.86,5.18c-0.55,0.59,0.01,2.09-0.32,3.05c-1.18,3.46-6.58,5.94-8.94,3.7c-4.47-4.23-5.6-1.0699-7.28,2.44 c-3,6.26-5.68,12.83-12.35,17.31c-1.06-15.26,3.46-28.39,10.8-41.19C177.6711,191.0271,175.4812,191.5971,173.9911,192.9471z" style="fill: inherit;"/><path d="M235.7712,293.277c-1.2,0.75-3.06,1.2401-3.47,2.29c-1.43,3.67-3.84,4.65-7.65,4.94 c-5.2,0.39-10.25,2-13.67,6.57c-1.4,1.87-2.69,2.93-4.92,0.58c-3.14-3.3-6.18-1.92-9.15,0.78c-3.67,3.3199-5.35,2.71-6.1-2.26 c-0.68-4.52-0.94-9.1-1.48-14.19c-3.59-3.36-5.48-1.76-6.1,1.95c-0.37,2.24,0.09,4.61-0.01,6.91c-0.42,9.81-0.84,19.62-1.4,29.42 c-0.2,3.49-1.15,6.97-1.07,10.43c0.04,1.63,1.72,3.23,2.65,4.84c1.18-1.44,3.14-2.76,3.4-4.35c1.13-6.97,1.66-14.04,2.66-21.04 c0.17-1.23,1.28-2.8,2.38-3.33c3.2-1.54,6.62-2.63,10.42-4.07c5.62,5.01,6.77,5.42,11.03,0.74c8-8.79,18.15-11.53,29.44-11.98 c2.38-0.09,4.71-1.17,7.06-1.79c-0.09-0.52-0.17-1.04-0.26-1.56C244.7411,297.0671,239.0011,298.4971,235.7712,293.277z" style="fill: inherit;"/><path d="M163.6112,330.707c-1.79,0.8-3.09,2.77-4.5,4.32c-2.1,2.31-3.94,4.25-7.27,1.37 c-2.17-1.8799-4.91-1.6-6.16,1.45c-2.67,6.52-5.21,13.1-7.5,19.76c-0.4,1.15,0.67,2.81,1.06,4.24c1.3-0.81,3.19-1.33,3.81-2.51 c1.83-3.47,3.17-7.21,4.77-11.33c0.75-4.39,2.22-6.45,6.88-4.9901c1.64,0.52,4.35-0.93,6.01-2.21c2.39-1.85,4.26-4.3701,5.77-5.98 c2.91,1.38,4.94,2.34,6.98,3.31c-1.24-2.6-2.02-5.64-3.92-7.61C168.5812,329.527,165.3612,329.9271,163.6112,330.707z" style="fill: inherit;"/><path d="M255.8312,238.7371c-4.3199,0.54-8.67,2.58-12.49,4.84c-4.52,2.67-8.61,5.21-14.29,5.45 c-3.84,0.16-7.9,2.55-11.25,4.83c-4.42,3.0099-7.94,7.42-14.25,6.23c-1.16-0.22-2.69,0.94-3.91,1.68 c-2.72,1.66-5.06,5.84-8.58,0.96c-0.27-0.36-1.75-0.29-2.33,0.09c-5.48,3.59-11.01,7.12-16.26,11.02c-3.17,2.36-5.85,5.37-8.8,8.03 c-2.18,1.97-3.7,2.04-4.92-1.22c-0.63-1.6899-2.51-2.9-3.82-4.33c-1.5,1.54-3.32,2.88-4.4,4.67c-1.27,2.1-1.72,4.6801-2.83,6.89 c-1.89,3.76-4.02,7.41-6.74,12.37c-1.84-5.7599-2.89-9.99-4.56-13.96c-0.95-2.27-2.92-4.12-4.43-6.16 c-1.86,1.69-4.56,3.03-5.43,5.13c-4.36,10.5-8.34,21.17-12.19,31.87c-0.56,1.58,0.25,3.66,0.43,5.51c0.52,0.09,1.04,0.17,1.56,0.26 c0.9-1.73,2.01-3.39,2.65-5.21c2.96-8.4,5.72-16.86,8.69-25.25c0.9-2.56,2.23-4.97,3.36-7.45c2.23,4.05,2.86,7.95,4.43,11.44 c1.19,2.65,3.58,4.77,5.43,7.13c2.3-1.95,5.19-3.51,6.76-5.93c2.52-3.87,4.16-8.32,6.22-12.62c6.47,5.17,8.38,5.09,14.17-0.49 c3.48-3.35,6.73-6.9301,10.3-10.17c1.49-1.35,3.63-3.09,5.3-2.92c6.27,0.63,11.82-0.4,16.76-4.44c1.08-0.88,2.59-2.01,3.7599-1.86 c6.64,0.83,10.72-3.5,15.4901-6.82c2.58-1.79,6.07-3.55,8.99-3.32c7.27,0.59,12.81-1.96,18.36-6.27c2.84-2.2,6.99-2.72,11.06-4.05 C261.6112,239.7371,261.1012,238.0971,255.8312,238.7371z" style="fill: inherit;"/><path d="M454.7795,74.0481c-0.146-0.0267-0.3082-0.0156-0.4792,0.0432c-0.2989,0.1027-0.5467,0.3136-0.7792,0.5276 c-1.3044,1.2009-2.3866,2.6612-3.3704,4.1727c-0.5368,0.8246-1.0443,1.6646-1.5427,2.4858 c-0.8071,1.3301-1.6143,2.6603-2.4211,3.9906c-0.2828,0.4662-1.5939,3.4091-2.3959,2.1733 c-0.1874-0.2888-0.1366-0.6778,0.014-0.9875c0.1505-0.3097,0.3869-0.5681,0.5779-0.8546c0.8849-1.3273,0.6929-3.1532-0.0804-4.5485 c-0.7734-1.3953-2.0341-2.4462-3.2944-3.4244c-0.7634-0.5925-1.6002-1.1952-2.5652-1.2473 c-1.4962-0.0809-2.6987,1.1526-3.679,2.2858c-1.5576,1.8005-3.0342,3.6982-4.6158,5.4589 c-1.0383,1.1559-2.1741,2.3597-3.5855,3.0599c-2.8939,1.4355-6.0862-0.3547-8.6132-1.7718 c-8.8808-4.9916-17.4208-10.5616-25.9608-16.0917c-3.91-2.53-7.4901-5.58-11.26-7.93c1.19,2.32,2.04,4.67,3.72,5.94 c8.1,6.12,16.01,12.67,24.78,17.65c3.7206,2.1086,7.7335,3.6405,11.7846,4.9805c3.3713,1.1151,7.1753,1.8231,10.2878,3.5735 c1.3329,0.7496,2.5296,1.8322,3.1378,3.2352c1.5132,3.4908-0.7936,6.3442-2.6329,9.0923c-2.0755,3.1011-4.151,6.2021-6.2265,9.3032 c-0.3455,0.5161-0.7072,1.1151-0.5583,1.7181c0.239,0.9682,1.5356,1.193,2.2574,0.6572c0.334-0.248,0.5782-0.5953,0.8164-0.9364 c2.2234-3.184,4.4344-6.375,6.6239-9.5825c2.7841-4.0786,5.586-8.2199,8.3145-12.2896c1.8342-2.7358,3.6628-5.4753,5.4844-8.2196 c1.1062-1.6666,2.2968-3.3268,3.3126-5.0445c1.0627-1.7969,2.1013-3.608,3.1866-5.3915c0.1804-0.2965,0.3642-0.6017,0.4262-0.9432 C455.5406,74.5963,455.2413,74.1326,454.7795,74.0481z" style="fill: inherit;"/><path d="M263.3912,188.3171c-1.81-0.64-4.6,0.37-6.51,1.41c-3.26,1.77-6.1701,4.2-9.26,6.29 c-3.3,2.23-6.23,4.06-10.73,1.52c-2.57-1.46-6.72-1.04-9.91-0.32c-6.78,1.53-11.27,6.26-14.29,12.61c1.68-0.51,3.05-1.62,4.62-2.2 c6.69-2.47,12.54-8.33,20.92-3.66c2.38,1.32,6.67-0.78,10.48-1.6c5.74-3.63,10.09-9.53,17.5-7.83c9.66,2.22,15.56-3.11,20.95-9.87 c-1.67-0.03-3.25,0.23-4.63,0.91C276.4412,188.5671,270.4012,190.7671,263.3912,188.3171z" style="fill: inherit;"/><path d="M102.7411,202.2771c2.69-2.28,4.8-5.24,6.75-7.42c8.37,6.26,9.13-4.24,14.03-4.62 c3.68,4.32,4.88,4.48,8.96,0.02c2.36-2.58,5.09-3.56,8.35-4.76c8.22-3.03,15.92-7.5,23.82-11.39c-0.35-0.74-0.69-1.47-1.04-2.21 c-5.22,2.24-10.3701,4.66-15.6801,6.65c-2.61,0.98-6.71,2.6-8.05,1.47c-5.14-4.33-6.35-0.35-8.24,2.91 c-0.92,1.58-1.82,3.18-3.09,5.4c-2.69-6.2-5.53-4.12-8.37-0.85c-1.72,1.98-3.42,3.97-5.4,6.26c-1.44-4.77-2.78-5.99-6.02-1.73 c-2.59,3.39-6.14,6.12-9.49,8.86c-3.34,2.74-5.32,0.54-6.65-2.48c-0.58-1.3-0.56-2.86-1.1-4.18c-2.14-5.24-5.13-6.02-9.53-2.42 c-1.44,1.17-2.78,2.62-3.72,4.21c-4.22,7.16-8.29,14.41-12.65,22.05c-1.59,4.34-3.31,8.19-4.1,12.21c-0.3,1.5,1.54,3.42,2.41,5.15 c1.3-1.11,3.14-1.97,3.78-3.38c1.81-3.95,2.72-8.35,4.72-12.18c4.15-7.93,8.78-15.61,13.73-24.3c1.5,2.48,2.03,3.35,2.55,4.22 C92.8011,206.5871,96.6711,207.4071,102.7411,202.2771z" style="fill: inherit;"/><path d="M187.6211,172.6771c0.58,0.15,1.56-0.61,2.12-1.18c2.83-2.89,5.79-3.6,9.94-2.45 c2.25,0.62,5.85-0.6,7.7-2.26c3.59-3.22,7.14-4.45,11.65-2.82c0.62-5.83-0.16-5.76-5.2-5.94c-5.68-0.2-6.65,4.35-9.98,7.2401 c-1.47,0.16-2.83,0.5-3.45-0.02c-3.72-3.09-7.43-3.24-11.41-0.58c-0.65,0.43-1.84,0.96-2.28,0.68c-4.5-2.88-6.49,0.79-8.68,3.37 c-2.95,3.48-5.8,7.09-8.29,10.91c-0.97,1.49-0.84,3.69-1.21,5.57c1.83-0.92,4-1.47,5.42-2.81 C178.0712,178.5071,179.1712,170.5671,187.6211,172.6771z" style="fill: inherit;"/><path d="M229.9911,163.8971c2.65-1.53,4.6801-3.33,7.55-0.32c2.41,2.52,4.49,4.54,2.63,8.62 c-0.79,1.74,0.58,4.47,0.96,6.75c1.26-2.04,2.55-4.07,3.76-6.14c0.19-0.32-0.12-0.92,0.07-1.23 c2.72-4.4901,4.4901-11.04,8.48-12.96c6.42-3.1,14.31-3.14,21.58-4.48c1.27-0.23,2.53-0.49,3.79-0.73c0.1-0.58,0.21-1.16,0.31-1.74 c-2.53-0.87-5.17-2.69-7.57-2.41c-4.83,0.5699-9.52,3.23-14.29,3.28c-6.66,0.07-9.55,3.92-12.41,8.72 c-0.52,0.86-2.12,1.08-3.52,1.27c-3.58-2.42-6.78-4.66-10.16-6.52c-1.16-0.64-3.92-0.82-4.08-0.43c-0.99,2.37-1.44,4.96-2.07,7.48 C226.7112,163.3871,228.8611,164.5471,229.9911,163.8971z" style="fill: inherit;"/><path d="M119.9311,243.4171c5.92,1.34,9.08-1.94,11.52-6.44c1.67-3.08,2.81-5.54,7.53-4.03 c2.45,0.78,5.91-1.58,8.92-2.52c-0.05-0.49-0.09-0.98-0.14-1.47c-1.68-0.59-3.34-1.61-5.04-1.67c-2.89-0.11-4.62-0.74-5.25-4.02 c-0.27-1.38-2.72-3.56-3.68-3.33c-1.55,0.38-3.08,2.25-3.92,3.85c-1.81,3.46-3.0699,7.22-4.84,10.71 c-0.41,0.82-2.39,1.78-2.91,1.46c-3.6-2.2-4.7-0.16-5.95,2.7599c-0.88,2.07-2.33,3.99-3.89,5.62c-0.87,0.91-2.69,1.72-3.72,1.41 c-0.99-0.3-2.1-2.11-2.12-3.27c-0.05-2.88,0.49-5.76,0.93-9.17c-0.62-1.96-1.38-3.38-2.14-4.81c-0.91,1.3-2.26,2.49-2.66,3.94 c-1.37,4.98-2.36,10.06-3.58,15.09c-1.71,7.04-3.7,14.03-5.11,21.14c-0.29,1.47,1.45,3.34,2.26,5.03 c1.17-0.97,3.13-1.7599,3.39-2.93c1.71-7.56,3.04-15.2099,4.57-23.22c5.18,3.99,8.66,1.05,12.17-2.23 C117.2612,244.397,118.8912,243.1871,119.9311,243.4171z" style="fill: inherit;"/><path d="M392.813,40.5581c0.6913,0.3586,1.3229,0.9189,1.9565,1.372c1.345,0.9617,2.6901,1.9235,4.0351,2.8853 c2.648,1.8934,5.2961,3.7869,7.9441,5.6803c0.1124,0.0804,0.231,0.1614,0.3538,0.2375c0.5135,0.3182,1.1,0.5499,1.6152,0.2871 c0.5545-0.2829,0.7131-1.047,0.5029-1.633c-0.2101-0.5859-0.6913-1.028-1.1703-1.4255c-0.6716-0.5573-1.1705-1.2485-1.8605-1.77 c-0.5967-0.4509-1.2443-0.8433-1.8253-1.3138c-1.0698-0.8661-2.1412-1.7303-3.2157-2.5906 c-2.1688-1.7365-4.4293-3.2789-7.0841-4.2227c-0.3829-0.1361-0.7776-0.2604-1.184-0.2662 c-0.4064-0.0057-0.8312,0.1218-1.1052,0.422c-0.3719,0.4076-0.3807,1.0651-0.1069,1.5443 C391.9542,40.265,392.3577,40.3218,392.813,40.5581z" style="fill: inherit;"/><path d="M415.6204,129.3654c-13.6754,15.6991-25.64,32.7938-38.2957,49.3067 c-3.5867,4.6799-7.3782,9.2488-10.7369,14.0955c-0.7213,1.0408,0.939,2.3392,1.7669,1.3633 c3.3434-3.9411,6.3732-8.1679,9.5132-12.272c3.2225-4.212,6.4597-8.4131,9.772-12.5551 c6.4683-8.0886,12.7532-16.313,19.0309-24.5504c3.5809-4.6987,6.9748-9.4681,10.2748-14.3656 C417.4766,129.5999,416.2513,128.6411,415.6204,129.3654z" style="fill: inherit;"/></g><g id="__id4741_sx0xqlbuzm"><path d="M355.1857,201.1842c-0.5718,4.3187-4.8319,8.1076-7.583,11.1523 c-8.626,9.5467-17.4067,19.3478-26.3017,28.7997c-4.5051,4.7872-9.0695,9.5192-13.7264,14.1591 c-4.128,4.1129-8.4234,9.749-14.669,10.3371c-8.6021,0.8099-17.4862-1.2097-24.7809-5.8734 c-6.7124-4.2913-12.9712-10.5771-12.7583-19.0659c0.1381-5.5069,2.3297-10.7315,4.5619-15.7676 c2.7133-6.1215,4.3897-12.4808,6.9975-18.5594c3.1337-7.3043,6.2091-14.5945,9.7936-21.6963 c3.929-7.7843,8.2369-15.4302,13.1377-22.6485c1.8864-2.7784,4.4368-4.3359,7.8528-2.4289c2.614,1.4593,3.1724,4.6718,4.9028,6.8945 c2.4738,3.1773,5.2239,6.1625,8.1199,8.9577c5.7043,5.5056,12.1435,10.2684,19.1524,13.9828 c4.5899,2.4325,9.4153,4.4213,14.3891,5.9207c3.0289,0.9131,7.8624,0.3324,10.1265,2.9545 C355.1204,199.1367,355.326,200.1243,355.1857,201.1842z" style="fill: rgb(131, 186, 160);"/></g><g id="__id4742_sx0xqlbuzm"><path d="M342.2981,201.3262c-1.7076-0.6981-3.6613-0.9241-5.4407-1.4233c-1.8071-0.507-3.5934-1.0822-5.351-1.7411 c-3.5724-1.3395-7.0123-3.0271-10.2839-4.9884c-6.519-3.9081-12.3014-8.8574-17.2282-14.641 c-2.7659-3.2469-5.1317-6.841-7.2538-10.5369c-0.6619-1.1529-2.2941-0.1417-1.7539,1.0252 c6.6311,14.324,19.4698,25.4413,34.0002,31.2576c2.0894,0.8364,4.2225,1.5654,6.3892,2.1742c2.07,0.5817,4.431,1.3538,6.5967,1.2779 C343.4305,203.6794,343.5345,201.8317,342.2981,201.3262z" style="fill: rgb(69, 51, 51);"/></g><g id="__id4743_sx0xqlbuzm"><path d="M278.0444,255.0252c-0.9877-0.5377-2.0903-0.8476-3.1414-1.2416c-1.0158-0.3808-2.0096-0.8025-2.9828-1.2826 c-1.983-0.9781-3.8932-2.1202-5.6748-3.4298c-0.9426-0.6929-2.1488,0.8646-1.256,1.6278c1.7849,1.5258,3.6957,2.8862,5.7681,3.9936 c1.0305,0.5507,2.09,1.0392,3.1678,1.4895c1.1319,0.473,2.3068,0.9081,3.5381,0.988 C278.6111,257.2446,279.0199,255.5563,278.0444,255.0252z" style="fill: rgb(69, 51, 51);"/></g><g id="__id4744_sx0xqlbuzm"><path d="M418.315,99.3101c-17.9489,21.5071-34.9852,43.8007-52.3116,65.8096 c-2.4196,3.0735-4.8222,6.1605-7.2324,9.2414c-2.4026,3.0712-5.0193,6.0817-7.1535,9.3455 c-0.6503,0.9946,0.8322,2.1335,1.6442,1.2686c2.3745-2.5292,4.436-5.4125,6.5876-8.1337c2.1668-2.7403,4.3336-5.4806,6.5004-8.2209 c4.3351-5.4825,8.639-10.9898,12.9564-16.4862c8.6878-11.0602,17.3979-22.1036,26.0228-33.2131 c4.7967-6.1784,9.5737-12.3661,14.2294-18.6519C420.0894,99.5526,418.8905,98.6206,418.315,99.3101z" style="fill: rgb(69, 51, 51);"/></g><g id="__id4745_sx0xqlbuzm"><path d="M259.6804,284.7021c-0.3714-0.1328-0.7997-0.1538-1.1859-0.24c-0.3738-0.0834-0.748-0.1645-1.1176-0.2654 c-0.7437-0.2029-1.4665-0.4647-2.1637-0.7927c-1.4584-0.6862-2.7672-1.5906-4.1124-2.4683 c-0.3917-0.2556-0.954-0.1156-1.2228,0.2441c-0.3055,0.4089-0.225,0.8606,0.0741,1.2446c1.1179,1.4352,2.78,2.4109,4.4606,3.0628 c0.782,0.3033,1.5941,0.5335,2.4173,0.6933c0.8914,0.173,1.9498,0.3758,2.8505,0.1788 C260.5698,286.165,260.4208,284.9668,259.6804,284.7021z" style="fill: rgb(69, 51, 51);"/></g><g id="__id4746_sx0xqlbuzm"><path d="M373.1648,71.4233c-1.6786,0.3762-3.5075,1.6597-4.5681,2.7636 c-9.7008,10.0971-17.338,22.6945-25.4035,34.0974c-10.4015,14.7055-20.5518,29.5889-30.7588,44.4325 c-1.38,2.0068-2.8068,4.1425-2.9775,6.5719c-0.5486,7.8062,8.7845,5.1215,12.3511,2.1317 c5.9761-5.0095,10.1795-11.782,14.2348-18.3436c8.0513-13.0273,16.1026-26.0545,24.1539-39.0818 c4.0256-6.5136,8.0513-13.0273,12.0769-19.5409C373.3558,82.7031,381.4817,69.5592,373.1648,71.4233z" style="fill: rgb(251, 216, 118);"/></g><g id="__id4747_sx0xqlbuzm"><path d="M261.8396,263.8845c0.1522-1.3646-0.0429-2.4916-0.843-2.8361c-2.052-0.8835-3.7928,3.8787-4.1854,5.2422 c-0.7407,2.5732-0.8847,6.0166,2.1916,4.1944C260.0312,269.8752,261.5527,266.4575,261.8396,263.8845z" style="fill: rgb(251, 216, 118);"/></g></svg>