<?xml version="1.0" encoding="UTF-8"?><svg xmlns="http://www.w3.org/2000/svg" xmlns:xlink="http://www.w3.org/1999/xlink" height="48.0" preserveAspectRatio="xMidYMid meet" version="1.0" viewBox="0.0 0.0 48.0 48.0" width="48.0" zoomAndPan="magnify"><g><g id="change1_1"><path d="M 42.003906 15.746094 C 42.003906 21.132812 37.636719 25.5 32.25 25.5 C 26.863281 25.5 22.5 21.132812 22.5 15.746094 C 22.5 10.363281 26.863281 5.996094 32.25 5.996094 C 37.636719 5.996094 42.003906 10.363281 42.003906 15.746094" fill="#ffca28"/></g><g id="change2_1"><path d="M 26.171875 8.125 C 23.851562 9.972656 22.5 12.78125 22.5 15.75 C 22.5 21.132812 26.863281 25.5 32.25 25.5 C 35.195312 25.496094 37.976562 24.164062 39.828125 21.875 C 38.101562 23.25 35.957031 24 33.75 24 C 28.363281 24 24 19.632812 24 14.25 C 24.003906 12.019531 24.769531 9.855469 26.171875 8.125" fill="#ecb200"/></g><g id="change3_1"><path d="M 1.5 31.5 L 8.25 31.5 C 8.664062 31.5 9 31.835938 9 32.25 L 9 45.75 C 9 46.164062 8.664062 46.5 8.25 46.5 L 1.5 46.5 C 1.085938 46.5 0.75 46.164062 0.75 45.75 L 0.75 32.25 C 0.75 31.835938 1.085938 31.5 1.5 31.5" fill="#549ad4"/></g><g id="change4_1"><path d="M 1.5 31.5 C 1.085938 31.5 0.75 31.835938 0.75 32.25 L 0.75 45.75 C 0.75 46.164062 1.085938 46.5 1.5 46.5 L 8.25 46.5 C 8.664062 46.5 9 46.164062 9 45.75 L 9 45 L 3 45 C 2.585938 45 2.25 44.664062 2.25 44.25 L 2.25 31.5 L 1.5 31.5" fill="#3588cb"/></g><g id="change5_1"><path d="M 9.066406 33.261719 L 9.066406 44.0625 C 10.113281 43.84375 11.976562 43.5 13.5 43.5 C 15.722656 43.5 18.394531 47.25 21.75 47.25 C 25.5 47.25 41.652344 37.664062 41.652344 37.664062 C 42.574219 37.183594 43.113281 36.222656 42.75 35.25 C 42.382812 34.277344 41.316406 33.8125 40.335938 34.152344 L 28.5 38.25 L 28.378906 38.285156 C 28.550781 37.371094 28.152344 36.417969 27.300781 35.925781 L 19.507812 31.425781 C 19.507812 31.425781 18.183594 30.628906 15.75 30.628906 C 14.042969 30.628906 11.796875 31.652344 9.066406 33.261719" fill="#ffc6a0"/></g><g id="change6_1"><path d="M 13.5 42 C 11.976562 42 10.113281 42.34375 9.066406 42.5625 L 9.066406 44.0625 C 10.113281 43.84375 11.976562 43.5 13.5 43.5 C 15.722656 43.5 18.394531 47.25 21.75 47.25 C 25.5 47.25 41.652344 37.664062 41.652344 37.664062 C 42.574219 37.183594 43.113281 36.222656 42.75 35.25 C 42.730469 35.207031 42.707031 35.167969 42.6875 35.125 C 42.484375 35.554688 42.117188 35.921875 41.652344 36.164062 C 41.652344 36.164062 25.5 45.75 21.75 45.75 C 18.394531 45.75 15.722656 42 13.5 42" fill="#ffaf7a"/></g><g id="change7_1"><path d="M 32.175781 0 C 31.242188 0.121094 31.285156 1.472656 32.25 1.5 C 40.125 1.5 46.5 7.894531 46.5 15.746094 C 46.5 23.605469 40.125 29.996094 32.25 29.996094 L 31.8125 29.996094 L 32.78125 29.03125 C 33.261719 28.5625 32.910156 27.722656 32.222656 27.75 C 32.027344 27.757812 31.851562 27.832031 31.71875 27.96875 L 29.46875 30.21875 C 29.175781 30.511719 29.175781 30.988281 29.46875 31.28125 L 31.71875 33.527344 C 32.4375 34.214844 33.472656 33.1875 32.78125 32.472656 L 31.804688 31.496094 L 32.25 31.496094 C 40.9375 31.496094 48 24.445312 48 15.746094 C 48 7.058594 40.953125 0 32.25 0 C 32.222656 0 32.199219 0 32.175781 0 Z M 32.25 5.25 C 26.441406 5.25 21.753906 9.953125 21.753906 15.746094 C 21.753906 21.535156 26.433594 26.25 32.25 26.25 C 38.0625 26.25 42.75 21.535156 42.75 15.746094 C 42.75 9.953125 38.058594 5.25 32.25 5.25 Z M 32.25 6.75 C 37.214844 6.75 41.25 10.765625 41.25 15.746094 C 41.25 20.726562 37.21875 24.746094 32.25 24.746094 C 27.28125 24.746094 23.246094 20.726562 23.246094 15.746094 C 23.246094 10.765625 27.28125 6.75 32.25 6.75 Z M 28.867188 9.152344 C 28.71875 9.160156 28.601562 9.195312 28.5 9.257812 C 27.261719 9.972656 26.253906 11.027344 25.59375 12.292969 C 25.164062 13.195312 26.433594 13.859375 26.929688 12.984375 C 27.457031 11.96875 28.261719 11.125 29.253906 10.550781 C 29.914062 10.175781 29.660156 9.167969 28.867188 9.152344 Z M 32.238281 9.902344 C 31.835938 9.90625 31.511719 10.226562 31.519531 10.628906 L 31.519531 11.4375 C 30.238281 11.769531 29.324219 12.894531 29.324219 14.234375 C 29.324219 15.082031 29.703125 15.726562 30.410156 16.078125 C 31.003906 16.371094 31.765625 16.425781 32.164062 16.46875 C 32.867188 16.542969 33.203125 16.601562 33.433594 16.714844 C 33.660156 16.828125 33.714844 16.984375 33.714844 17.25 C 33.714844 18.035156 33.070312 18.65625 32.269531 18.667969 C 31.566406 18.632812 31.070312 18.25 30.828125 17.464844 C 30.535156 16.53125 29.136719 16.972656 29.425781 17.902344 C 29.742188 18.902344 30.441406 19.738281 31.519531 20.027344 L 31.519531 20.863281 C 31.519531 21.835938 32.980469 21.84375 32.980469 20.863281 L 32.980469 20.042969 C 34.25 19.726562 35.175781 18.589844 35.175781 17.25 C 35.175781 16.402344 34.804688 15.757812 34.082031 15.402344 C 33.527344 15.128906 32.875 15.074219 32.328125 15.015625 C 31.78125 14.957031 31.335938 14.898438 31.0625 14.765625 C 30.835938 14.652344 30.789062 14.503906 30.789062 14.238281 C 30.789062 13.449219 31.425781 12.824219 32.222656 12.816406 C 32.933594 12.84375 33.429688 13.234375 33.675781 14.019531 C 34.007812 14.941406 35.328125 14.523438 35.074219 13.582031 C 34.761719 12.582031 34.074219 11.753906 32.980469 11.457031 L 32.980469 10.628906 C 32.984375 10.21875 32.652344 9.898438 32.238281 9.902344 Z M 25.507812 14.253906 C 25.109375 14.292969 24.832031 14.566406 24.796875 14.921875 C 24.765625 15.195312 24.75 15.46875 24.75 15.746094 C 24.75 16.746094 26.253906 16.746094 26.253906 15.746094 C 26.253906 15.523438 26.265625 15.304688 26.289062 15.085938 C 26.347656 14.636719 25.996094 14.25 25.507812 14.253906 Z M 15.75 29.878906 C 13.972656 29.878906 11.878906 30.824219 9.734375 32.015625 C 9.625 31.296875 8.992188 30.75 8.25 30.75 L 1.5 30.75 C 0.683594 30.75 0 31.414062 0 32.25 L 0 45.746094 C 0 46.589844 0.683594 47.246094 1.5 47.246094 L 8.25 47.246094 C 9.066406 47.246094 9.75 46.589844 9.75 45.746094 L 9.75 44.6875 C 10.804688 44.484375 12.269531 44.25 13.496094 44.25 C 14.34375 44.25 15.390625 45.039062 16.777344 45.988281 C 18.160156 46.941406 19.824219 48 21.753906 48 C 22.847656 48 24.675781 47.351562 26.746094 46.4375 C 28.816406 45.527344 31.199219 44.320312 33.460938 43.117188 C 37.96875 40.71875 41.96875 38.347656 42 38.324219 C 43.179688 37.707031 43.980469 36.398438 43.449219 34.984375 C 42.941406 33.632812 41.460938 32.96875 40.089844 33.445312 L 29.109375 37.242188 C 28.933594 36.425781 28.4375 35.714844 27.675781 35.277344 L 19.894531 30.78125 C 19.8125 30.738281 18.339844 29.871094 15.75 29.878906 Z M 15.75 31.378906 C 17.765625 31.378906 18.929688 31.957031 19.128906 32.074219 L 26.929688 36.574219 C 27.660156 36.996094 27.882812 37.921875 27.476562 38.625 C 27.070312 39.328125 26.15625 39.597656 25.425781 39.175781 L 20.917969 36.566406 C 20.054688 36.089844 19.320312 37.359375 20.164062 37.867188 L 24.671875 40.46875 C 26.101562 41.292969 27.929688 40.828125 28.769531 39.375 C 28.863281 39.210938 28.945312 39.035156 29.007812 38.863281 L 40.582031 34.863281 C 41.175781 34.65625 41.824219 34.914062 42.046875 35.507812 C 42.253906 36.054688 41.96875 36.652344 41.285156 37.007812 C 41.285156 37.007812 37.238281 39.40625 32.753906 41.792969 C 30.507812 42.988281 28.148438 44.179688 26.136719 45.0625 C 24.121094 45.949219 22.511719 46.5 21.753906 46.5 C 20.316406 46.5 18.972656 45.679688 17.628906 44.753906 C 16.34375 43.875 14.847656 42.71875 13.496094 42.75 C 12.230469 42.75 10.824219 42.960938 9.75 43.164062 L 9.75 33.726562 C 12.300781 32.25 14.304688 31.378906 15.75 31.378906 Z M 1.5 32.25 L 8.25 32.25 L 8.25 45.746094 L 1.5 45.746094 Z M 3.75 42.75 C 3.335938 42.75 3 43.085938 3 43.5 C 3 43.914062 3.335938 44.25 3.75 44.25 C 4.164062 44.25 4.5 43.914062 4.5 43.5 C 4.5 43.085938 4.164062 42.75 3.75 42.75" fill="#333"/></g></g></svg>