<?xml version="1.0" encoding="UTF-8"?><svg xmlns="http://www.w3.org/2000/svg" xmlns:xlink="http://www.w3.org/1999/xlink" height="62.3" preserveAspectRatio="xMidYMid meet" version="1.0" viewBox="0.0 0.0 62.0 62.3" width="62.0" zoomAndPan="magnify"><g><g><g id="change1_1"><path d="M6.05,40.26c1.37,4.04,4.05,7.64,7.72,10.2l6.96,4.85c1.83,1.28,4,1.95,6.27,1.95 s4.44-0.67,6.27-1.95l6.96-4.85c0.09-0.07,0.18-0.13,0.28-0.2h6.01c-1.17,1.26-2.49,2.41-3.94,3.43l-6.9,4.85 c-2.54,1.78-5.54,2.72-8.68,2.72s-6.14-0.94-8.68-2.72l-6.9-4.85C4.89,49.11,1,41.75,1,34.01c0-1.61,0.17-3.22,0.49-4.79 l3.85-18.43l8.15-1.74c3.02-0.64,5.9-1.96,8.31-3.81L27,1.26l5.2,3.98c2.41,1.85,5.29,3.17,8.31,3.81l8.15,1.74l1.56,7.47h-4.11 l-0.87-4.13l-5.54-1.17c-3.66-0.78-7.15-2.36-10.08-4.59l-2.62-2l-2.62,2c-2.93,2.23-6.42,3.81-10.08,4.59l-5.54,1.17L5.79,28.26 l-0.37,1.75c-0.16,0.74-0.27,1.49-0.34,2.25C5.03,32.84,5,33.43,5,34.01c0,0.75,0.04,1.5,0.13,2.25h0.01 C5.29,37.62,5.6,38.96,6.05,40.26z" fill="#aab2bd"/></g><g id="change2_1"><path d="M40.51,50.26c-0.1,0.07-0.19,0.13-0.28,0.2l-6.96,4.85c-1.83,1.28-4,1.95-6.27,1.95 s-4.44-0.67-6.27-1.95l-6.96-4.85c-3.67-2.56-6.35-6.16-7.72-10.2H31v10H40.51z" fill="#ccd1d9"/></g><g id="change2_2"><path d="M45.24,14.13l0.87,4.13H31v10H5.79l2.97-14.13l5.54-1.17c3.66-0.78,7.15-2.36,10.08-4.59l2.62-2 l2.62,2c2.93,2.23,6.42,3.81,10.08,4.59L45.24,14.13z" fill="#ccd1d9"/></g><g id="change3_1"><path d="M31 18.26H61V50.260000000000005H31z" fill="#f0d0b4"/></g><g id="change4_1"><path d="M51 40.26H57V46.26H51z" fill="#fcd770"/></g><g id="change4_2"><path d="M51 30.26H57V36.260000000000005H51z" fill="#fcd770"/></g><g id="change5_1"><path d="M33,36.26v4h-2H6.05c-0.45-1.3-0.76-2.64-0.91-4H33z" fill="#b4dd7f"/></g><g id="change5_2"><path d="M33,28.26v4H5.08c0.07-0.76,0.18-1.51,0.34-2.25l0.37-1.75H31H33z" fill="#b4dd7f"/></g><g id="change6_1"><path d="M33,32.26v4H5.14H5.13C5.04,35.51,5,34.76,5,34.01c0-0.58,0.03-1.17,0.08-1.75H33z" fill="#ef7385"/></g><g id="change7_1"><path d="M40.15,32.73c0.53,0.33,0.85,0.91,0.85,1.53s-0.32,1.2-0.85,1.53L33,40.26v-4v-4v-4L40.15,32.73z" fill="#969faa"/></g></g><g id="change8_1"><path d="M62,17.26H51.028l-1.527-7.316l-8.787-1.87c-2.875-0.612-5.609-1.867-7.908-3.627L27,0l-5.806,4.447 c-2.299,1.76-5.033,3.015-7.908,3.627l-8.787,1.87L0.515,29.017C0.173,30.66,0,32.338,0,34.006c0,8.072,4.053,15.735,10.84,20.5 l6.906,4.851C20.45,61.256,23.649,62.26,27,62.26s6.55-1.003,9.254-2.902l6.905-4.85c1.365-0.959,2.631-2.054,3.781-3.248H62 V17.26z M40.298,10.03l7.512,1.598l1.176,5.631h-2.062l-0.836-3.975l-6.183-1.306c-3.517-0.743-6.862-2.267-9.676-4.405L28,5.878 V3.286l3.589,2.75C34.122,7.975,37.134,9.356,40.298,10.03z M26,27.26H7.016l2.586-12.288l4.906-1.036 c3.804-0.805,7.426-2.454,10.474-4.771L26,8.391V27.26z M6.395,30.213l0.201-0.954H32v2H6.231 C6.284,30.911,6.322,30.559,6.395,30.213z M32,33.26v2H6.046C6.018,34.843,6,34.426,6,34.006c0-0.248,0.029-0.497,0.039-0.746H32z M32,37.26v2H6.779c-0.196-0.657-0.359-1.324-0.482-2H32z M26,41.26v14.946c-1.699-0.166-3.308-0.747-4.698-1.717l-6.957-4.851 c-3.089-2.153-5.434-5.078-6.842-8.378H26z M28,41.26h2v10h7.326l-4.628,3.229c-1.391,0.97-2.999,1.551-4.698,1.717V41.26z M34,30.064l5.622,3.514C39.858,33.726,40,33.98,40,34.26s-0.142,0.534-0.378,0.682L34,38.455V30.064z M30,27.26h-2V8.391 l1.019,0.775c3.048,2.316,6.669,3.966,10.473,4.771l4.907,1.037l0.481,2.287H30V27.26z M11.989,52.87 C5.734,48.479,2,41.427,2,34.006c0-1.531,0.159-3.072,0.473-4.581L6.19,11.628l7.512-1.598c3.164-0.674,6.176-2.055,8.709-3.995 L26,3.286v2.593l-2.229,1.696c-2.813,2.139-6.16,3.662-9.677,4.406l-6.182,1.305L4.438,29.802C4.147,31.188,4,32.602,4,34.006 c0,6.8,3.439,13.257,9.2,17.272l6.957,4.851c1.728,1.205,3.731,1.916,5.843,2.087v2.006c-2.57-0.177-5.009-1.03-7.104-2.502 L11.989,52.87z M42.009,52.871l-6.905,4.85c-2.094,1.471-4.533,2.325-7.104,2.502v-2.006c2.112-0.171,4.115-0.883,5.843-2.087 l6.957-4.851l0.026-0.019h3.225C43.4,51.831,42.72,52.371,42.009,52.871z M60,49.26H32v-8h1.287l7.396-4.622 C41.508,36.122,42,35.233,42,34.26s-0.492-1.862-1.317-2.378l-7.396-4.622H32v-8h28V49.26z" fill="inherit"/><path d="M50,47.26h8v-8h-8V47.26z M52,41.26h4v4h-4V41.26z" fill="inherit"/><path d="M50,37.26h8v-8h-8V37.26z M52,31.26h4v4h-4V31.26z" fill="inherit"/><path d="M36 45.26H48V47.26H36z" fill="inherit"/><path d="M36 41.26H48V43.26H36z" fill="inherit"/><path d="M36 27.26L38 27.26 38 25.26 40 25.26 40 23.26 38 23.26 38 21.26 36 21.26 36 23.26 34 23.26 34 25.26 36 25.26z" fill="inherit"/><path d="M44 21.26H58V23.26H44z" fill="inherit"/><path d="M44 25.26H58V27.26H44z" fill="inherit"/></g></g></svg>