<?xml version="1.0" encoding="utf-8"?>
<!-- Generator: Adobe Illustrator 26.3.1, SVG Export Plug-In . SVG Version: 6.00 Build 0)  -->
<svg version="1.1" id="Capa_1" xmlns="http://www.w3.org/2000/svg" xmlns:xlink="http://www.w3.org/1999/xlink" x="0px" y="0px"
	 viewBox="0 0 90 90" style="enable-background:new 0 0 90 90;" xml:space="preserve">
<style type="text/css">
	.st0{fill:#83BAA0;}
	.st1{fill:#FFFFFF;}
</style>
<g id="change1_1">
	<path class="st0" d="M45,0C20.1,0,0,20.1,0,45s20.1,45,45,45s45-20.1,45-45S69.9,0,45,0z M66.4,58.6H29.7l9,7.5
		c0.9,0.8,1.1,2.2,0.3,3.1c-0.4,0.5-1.1,0.8-1.7,0.8c-0.5,0-1-0.2-1.4-0.5L22.2,58.1c0,0,0-0.1-0.1-0.1c-0.2-0.1-0.3-0.3-0.4-0.5
		c0-0.1-0.1-0.1-0.1-0.2c-0.1-0.3-0.2-0.6-0.2-0.9c0-0.3,0.1-0.6,0.2-0.9c0-0.1,0.1-0.1,0.1-0.2c0.1-0.2,0.2-0.4,0.4-0.5
		c0,0,0-0.1,0.1-0.1l13.6-11.4c0.9-0.8,2.3-0.7,3.1,0.3c0.8,0.9,0.7,2.3-0.3,3.1l-9,7.5h36.7c1.2,0,2.2,1,2.2,2.2
		S67.6,58.6,66.4,58.6z M68.4,34.5c0,0.1-0.1,0.1-0.1,0.2c-0.1,0.2-0.2,0.4-0.4,0.5c0,0,0,0.1-0.1,0.1L54.2,46.7
		c-0.4,0.3-0.9,0.5-1.4,0.5c-0.6,0-1.3-0.3-1.7-0.8c-0.8-0.9-0.7-2.3,0.3-3.1l9-7.5H23.6c-1.2,0-2.2-1-2.2-2.2s1-2.2,2.2-2.2h36.7
		l-9-7.5c-0.9-0.8-1.1-2.2-0.3-3.1s2.2-1.1,3.1-0.3l13.6,11.4c0,0,0,0.1,0.1,0.1c0.2,0.1,0.3,0.3,0.4,0.5c0,0.1,0.1,0.1,0.1,0.2
		c0.1,0.3,0.2,0.6,0.2,0.9C68.6,33.9,68.5,34.2,68.4,34.5z"/>
</g>
<path class="st0" d="M30.3,54.2"/>
<path class="st1" d="M30.2,54.3H68c0,0,2-0.1,2.3,2.3c0,0,0.1,1.5-1.6,2.2l-39.1,0.1l9.5,7.9c0,0,1.9,1.8,0.1,3.5
	c-1.8,1.6-3.1,0.1-3.1,0.1L21.6,58.3c0,0-2.1-1.6,0.1-3.5s14.5-12.1,14.5-12.1s1.5-1.2,2.9,0.3s0.8,2,0.2,3.1L30.2,54.3z"/>
<path class="st1" d="M59.3,35.9H21.5c0,0-2,0.1-2.3-2.3c0,0-0.1-1.5,1.6-2.2l39.1-0.1l-9.5-7.9c0,0-1.9-1.8-0.1-3.5
	c1.8-1.6,3.1-0.1,3.1-0.1l14.5,12.1c0,0,2.1,1.6-0.1,3.5c-2.2,1.8-14.5,12.1-14.5,12.1s-1.5,1.2-2.9-0.3s-0.8-2-0.2-3.1L59.3,35.9z"
	/>
</svg>
