<?xml version="1.0" encoding="UTF-8" standalone="no"?><svg xmlns="http://www.w3.org/2000/svg" xmlns:xlink="http://www.w3.org/1999/xlink" fill="#000000" height="90" preserveAspectRatio="xMidYMid meet" version="1" viewBox="5.0 5.0 90.0 90.0" width="90" zoomAndPan="magnify"><g id="change1_1"><path d="M50,5C25.1,5,5,25.1,5,50c0,24.9,20.1,45,45,45s45-20.1,45-45C95,25.1,74.9,5,50,5z M71.4,63.6H34.7l9,7.5 c0.9,0.8,1.1,2.2,0.3,3.1c-0.4,0.5-1.1,0.8-1.7,0.8c-0.5,0-1-0.2-1.4-0.5L27.2,63.1c0,0,0-0.1-0.1-0.1c-0.2-0.1-0.3-0.3-0.4-0.5 c0-0.1-0.1-0.1-0.1-0.2c-0.1-0.3-0.2-0.6-0.2-0.9c0-0.3,0.1-0.6,0.2-0.9c0-0.1,0.1-0.1,0.1-0.2c0.1-0.2,0.2-0.4,0.4-0.5 c0,0,0-0.1,0.1-0.1l13.6-11.4c0.9-0.8,2.3-0.7,3.1,0.3c0.8,0.9,0.7,2.3-0.3,3.1l-9,7.5h36.7c1.2,0,2.2,1,2.2,2.2 S72.6,63.6,71.4,63.6z M73.4,39.5c0,0.1-0.1,0.1-0.1,0.2c-0.1,0.2-0.2,0.4-0.4,0.5c0,0,0,0.1-0.1,0.1L59.2,51.7 c-0.4,0.3-0.9,0.5-1.4,0.5c-0.6,0-1.3-0.3-1.7-0.8c-0.8-0.9-0.7-2.3,0.3-3.1l9-7.5H28.6c-1.2,0-2.2-1-2.2-2.2s1-2.2,2.2-2.2h36.7 l-9-7.5c-0.9-0.8-1.1-2.2-0.3-3.1c0.8-0.9,2.2-1.1,3.1-0.3l13.6,11.4c0,0,0,0.1,0.1,0.1c0.2,0.1,0.3,0.3,0.4,0.5 c0,0.1,0.1,0.1,0.1,0.2c0.1,0.3,0.2,0.6,0.2,0.9C73.6,38.9,73.5,39.2,73.4,39.5z" fill="#83baa0"/></g></svg>