<?xml version="1.0" encoding="UTF-8" standalone="no"?><svg xmlns="http://www.w3.org/2000/svg" xmlns:xlink="http://www.w3.org/1999/xlink" fill="#000000" height="411" preserveAspectRatio="xMidYMid meet" version="1" viewBox="-0.7 -0.8 497.8 411.0" width="497.8" zoomAndPan="magnify"><g id="change1_1"><path d="M319.6,161.4c0,0,177.5,6.8,176.4,10.8c-0.1,0.6-0.4,2.4-0.5,5.1c-10.6,22.1-6.8,33.5-1.5,39.8 c-0.3,4.3-0.8,7.4-1.3,8.4c-2.3,4.1-162.9,178.8-168.1,181.8c-5.2,2.9-62.5-6.1-92.3-13c-29.8-6.9-232.1-65.1-232.1-67.3 c0-2.2-0.9-63.3,3.2-66.7c4.1-3.4,15.3-13.5,15.3-13.5L319.6,161.4z" fill="#65858c"/></g><g id="change2_1"><path d="M458.5,125.6c1,0.9,1.8,2.9,2.2,5.9c-4,11.7-11.6,34.7-1.5,45.5c-0.9,5.6-1.9,9.7-2.9,10.6 c-4,3.7-133.3,149.1-144.9,148.7c-11.6-0.4-293.6-69.9-293.4-75.1c0.1-5.1,2.6-72.3,2.6-72.3c47.1-38.6,92.6-79.2,136.4-121.6l0,0 c-0.9,2.6,0.8,5.2,3.4,5.7C199.6,79.5,452.6,120.7,458.5,125.6z" fill="#022e40"/></g><g id="change3_1"><path d="M400.1,159.2c-28.3,29.7-51.1,56.9-76.8,84.4c-7.4,7.9-14.9,11.7-25.8,11.4c-4.6-0.1-8.8-2.3-13.1-3.6 c-39.4-11.4-179.3-52.2-223.1-61.2c-0.9-18.2-1.8-36.4-2.7-54.6c-0.3-4.6-0.4-9.3,1.1-13.6c2.2-5.6,7-9.8,11.7-13.5 C116,72.3,160.7,36.1,205.2,0c0.9-0.8,129,34.8,157.8,42.1c28.7,7.3,48.5,15.4,50.9,19.5c0.5,0.9,1.1,4.1,1.8,8.8 c-17.7,28.4,5.1,51.3,5.1,56.5C420.9,133.2,420.9,137.3,400.1,159.2z" fill="#a6a6a6"/></g><g id="change4_1"><path d="M308.8,244.8c-1-0.8-1.4-2.2-1.7-3.4c-3.8-20.7-2.9-42.9-3.4-63.9c36-37,73.3-72.8,111.7-107.3 c1.7,15.8,5.2,51.3,5.4,56.4c0,0.1,0,0.3,0,0.3c-34.4,39.7-71.2,75.6-105.6,115.4C313.6,244.3,310.9,246.3,308.8,244.8z M459.1,177.1c2-13.1,3.3-34.9,1.5-45.5l-146,144.3c0,0-6.1,37.5,0.3,49.7C315.4,326.8,427.6,210,459.1,177.1z M430.4,241.5 C411.8,259.3,319.3,349.4,319,350.6c-0.5,1.4,0.8,39.3,4.7,46.4c0,0,93.9-93.6,124.2-129.7c18.5-22.1,35.6-39.9,46-50.6 c0.8-11.4,1-30.7,1.5-39.8C484,188.4,446.1,226.4,430.4,241.5z M191.2,328.7c-15.2-6.9-31.1-12.2-47.3-15.9 c-11.6-2.7-23.6-4.6-35.5-4.3c-9.9,0.3-24.4,9.4-19.8,21.2c1.9,5,6.4,8.4,10.8,11.2c8.8,5.4,18.5,9.1,28.3,12.4 c25.9,8.9,53.7,16.1,80.6,10.6c3.8-0.8,8.2-2.2,10.1-5.6c2.7-4.7-0.3-10.7-4.1-14.7C207.9,336.7,199.6,332.4,191.2,328.7z M218.6,216.5c18.9,6.1,38,11,57.5,14.5c0.6-10.1,2.3-20.4,2.4-31.6c-9.7-3.8-47.4-14.2-57.8-15.3 C219.7,193.9,219.7,206.9,218.6,216.5z M80.2,135.5c-0.1-1.3-1.8-1.3-1.9,0c-0.6,7.5-1,14.9-1.3,22.4c-0.4,7.4-1.7,15.1-0.9,22.4 c0.3,2.2,3.6,3.1,4.1,0.5c1.4-7,0.9-14.5,0.9-21.8C81.1,151.3,80.8,143.5,80.2,135.5z M93.1,190.3c1.3-16.7-0.8-33.9-2.3-50.5 c0-0.3-0.5-0.3-0.5,0c-1,16.7-3.2,33.8-2.7,50.5C87.8,193.8,92.8,193.8,93.1,190.3z M34.9,205.6c-0.1-0.5-0.8-0.5-0.9,0 c-1.8,8.2-1.7,16.7-2,25c-0.5,9.1-1.4,18.4-0.8,27.4c0.3,2.9,4.2,2.9,4.6,0c0.9-9.1,0.4-18.4,0.3-27.4 C35.8,222.3,36.3,213.8,34.9,205.6z M257,271.1c-2.3,13.3-3.2,28.4-0.3,41.7c0.6,2.8,5.2,2.2,5.1-0.6c-0.6-13.6-2.6-27.3-3.4-40.9 C258.2,270.5,257.1,270.3,257,271.1z M275.3,278.5c-4.7,4-4.7,10.2-4.7,16.1c-0.1,8.5-1.7,18.9,1.1,27c0.5,1.4,2.6,1.5,3.1,0 c1.9-6.5,0.8-14,0.8-20.7c-0.1-6.5-1.8-15.2,1.7-21C277.8,278.6,276.2,277.6,275.3,278.5z M287.3,173c-6.6-4.6-16.3-5.9-24.1-8 c-8.9-2.4-17.7-4.8-26.7-7.3c-18.2-4.8-36.5-9.6-54.7-14.2c-17.9-4.5-35.7-8.8-53.7-13c-8.9-2.2-18-4.2-26.9-6.1 c-8.5-1.8-17.5-4.8-26.3-5.1c-1,0-1.7,1.7-0.5,2.2c7.5,3.4,16.5,4.6,24.5,6.6c8.9,2.3,17.9,4.3,26.9,6.4c18.4,4.3,36.7,8.5,55,13 c17.9,4.3,35.8,8.7,53.6,13.5c8.9,2.4,17.7,4.8,26.7,7.3c8,2.3,17.3,6.8,25.9,6.4C287.7,174.5,288,173.5,287.3,173z" fill="#fdddc8"/></g></svg>