<?xml version="1.0" encoding="UTF-8" standalone="no"?><svg xmlns="http://www.w3.org/2000/svg" xmlns:xlink="http://www.w3.org/1999/xlink" fill="#000000" height="496.7" preserveAspectRatio="xMidYMid meet" version="1" viewBox="1.0 1.6 431.9 496.7" width="431.9" zoomAndPan="magnify"><g id="change1_1"><path d="M30.0577,127.3685c1.3219,7.7541,2.6439,15.5066,3.9655,23.2589l3.9842,20.5834 c2.0748,7.7851,4.1493,15.5701,6.2241,23.3548l6.1246,21.4181c1.343,5.5708,2.686,11.1416,4.029,16.7136l7.1505,25.9758 c1.6745,6.9158,3.3492,13.8317,5.024,20.7487l5.1897,19.8824c1.087,2.501,2.438,4.9239,3.2034,7.5197 c1.4505,4.9199,2.5655,9.9387,3.8197,14.9166l4.999,16.7367c2.4077,9.2801,4.8158,18.5602,7.2235,27.8404l3.8529,17.0275 c3.2052,6.921,6.048,13.9249,4.9848,21.8228l6.291,17.646c1.3537,6.6533,2.7074,13.3066,4.0611,19.9609 c0.7692,0.2722,1.5191,0.6415,2.3109,0.7977c3.9578,0.7817,8.4789,1.1134,9.5199,5.9659c1.0885,5.0732-3.6373,6.0884-6.7284,8.1163 c3.2266,12.1722,6.3129,24.3844,9.7634,36.4929c1.0591,3.7177,4.6156,4.1663,7.9363,3.7024 c5.2746-0.7368,10.5273-1.6669,15.7562-2.6866c26.6809-5.2038,53.4212-10.1346,80.005-15.7981 c24.6492-5.2515,49.1649-11.1498,73.6718-17.0443c38.2308-9.1954,76.3499-18.8638,114.6457-27.7746 c8.3391-1.9404,12.339-6.6677,14.5041-14.0907c1.3662-4.6845-2.076-8.4048-6.9767-7.6135 c-1.6569-6.3821-3.3139-12.7644-4.9702-19.1469c1.4113-0.3706,2.806-0.8371,4.2387-1.0943c3.981-0.7147,6.5422-3.0129,6.8274-7.015 c0.2242-3.1504,0.18-6.489-0.6139-9.516c-6.7433-25.7158-14.0069-51.2987-20.4817-77.0805 c-24.4392-97.3127-47.364-195.0538-70.9514-292.5786c-1.0517-4.3494-3.0855-4.8459-6.8315-4.1554 c-48.8656,9.0076-97.4128,19.6115-145.8044,30.8678C141.1138,43.5656,94.8581,51.5452,52.4399,70.2402 c-9.1296,4.0237-12.4257,10.5702-12.1943,19.8203c-2.3097,1.2238-5.7718,1.8794-6.7084,3.7802 c-2.573,5.2227-4.0864,10.9679-6.025,16.5094L30.0577,127.3685z" fill="#4da1a4"/></g><g id="change2_1"><path d="M424.593,412.8424c-0.3719-1.4322-260.3065,63.4245-283.2044,69.159 c-6.5126,1.631-6.7723,1.4783-8.6185-5.1801c-5.1303-18.5028-10.2508-37.0081-15.4087-55.5032 c-0.2592-0.9293-0.8334-1.7707-1.2604-2.6565c3.1203-0.5511,6.2399-1.0987,9.3597-1.6463 c3.7404,13.6538,7.6138,27.2732,11.1555,40.9784c1.4169,5.4828,5.3769,3.8488,8.4794,3.2654 c54.6554-10.2779,108.9538-25.9821,162.9753-39.2265c35.8125-8.7801,71.2961-18.8477,107.0344-27.9221 c1.4478-0.3676,3.0091-0.2878,4.5174-0.415C421.2791,400.078,422.936,406.4602,424.593,412.8424z M33.5372,93.8406 c-2.5731,5.2227-4.0865,10.9679-6.025,16.5094c5.3506-1.1385,10.7071-2.2801,16.063-3.4243 c-1.1102-5.6235-2.2199-11.2443-3.3296-16.8652C37.9358,91.2842,34.4737,91.9398,33.5372,93.8406z M58.1708,209.3965 c2.441,8.7155,4.882,17.4311,7.323,26.1472c4.4867,2.9969,8.3206-0.2074,12.3753-1.303c-2.49-10.56-4.9788-21.1205-7.4676-31.681 C66.3246,204.8386,62.2477,207.1176,58.1708,209.3965z M46.3593,164.4907c2.407,8.6663,4.7841,17.3411,7.2543,25.9892 c0.3561,1.2468,1.1605,2.3654,1.755,3.5449c3.8003-1.5989,7.603-3.1994,11.406-4.8036c-2.7975-9.8754-5.5954-19.747-8.3932-29.6186 C54.374,161.232,50.3667,162.8614,46.3593,164.4907z M35.0515,124.4855c2.3869,8.5641,4.7739,17.1282,7.16,25.6926 c4.0741-1.0759,8.1489-2.1522,12.2235-3.2283c-2.4099-8.7057-4.8194-17.4115-7.229-26.1173 C43.1545,122.0501,39.103,123.2678,35.0515,124.4855z M80.7903,291.2022c2.4176,9.3924,4.8352,18.7847,7.2536,28.1767 c3.598-0.9316,7.1952-1.8629,10.795-2.7947c-2.3843-10.0926-4.7712-20.1846-7.1581-30.2767 C88.0507,287.9391,84.4205,289.5706,80.7903,291.2022z M91.9603,333.6332c2.737,9.6863,5.4741,19.3726,8.2113,29.061 c3.3419-0.5444,6.6836-1.091,10.0255-1.6371c-2.4852-10.3107-4.9706-20.6219-7.4559-30.9331 C99.1476,331.2938,95.5539,332.4635,91.9603,333.6332z M70.3938,253.0409c2.1605,8.0096,4.321,16.0191,6.4826,24.029 c3.687-1.0778,7.3729-2.1559,11.0585-3.2337c-2.0682-8.6324-4.1361-17.2651-6.2039-25.8978 C77.9519,249.6393,74.1729,251.3401,70.3938,253.0409z M104.0712,377.1819c2.7427,8.8787,5.4854,17.7573,8.2283,26.6361 c3.0646-0.2603,6.1288-0.5207,9.1929-0.7823c-2.4538-9.45-4.9074-18.8989-7.3611-28.3477 C110.778,375.5193,107.4246,376.3506,104.0712,377.1819z" fill="#f8f8f9"/></g><g id="change3_1"><path d="M170.0303,164.5914c-0.7437-7.1785-1.5585-13.1545-1.8563-19.156 c-0.2357-4.7486,4.6051-5.7081,6.1455-1.2058c2.6714,7.8077,5.2974,15.6704,7.1661,23.6941 c0.7469,3.2074,0.0323,7.0361-0.9586,10.2957c-1.2044,3.9617-5.6699,4.3765-9.666,1.0713 c-4.4153-3.6519-8.6071-7.573-12.9327-11.335c-1.5888-1.3818-3.2818-2.6438-5.8369-3.3284 c1.4656,4.8285,2.981,9.6427,4.3736,14.4921c0.5995,2.0876,1.5193,4.3317,1.2265,6.3497c-0.2415,1.6643-1.7815,3.9075-3.2512,4.407 c-1.4285,0.4855-3.7385-0.5787-5.2094-1.6085c-1.0905-0.7635-1.8437-2.4955-2.0848-3.9091 c-1.837-10.7694-3.6571-21.5463-5.1575-32.366c-0.5332-3.845,2.4143-5.7607,5.8158-3.6046 c5.6639,3.5902,10.9188,7.8267,16.3387,11.8009C165.8692,161.4545,167.5723,162.7515,170.0303,164.5914z M267.8675,120.6836 c6.2018-3.8298,0.8917-7.1959-4.2399-5.8922c-3.2858,0.835-6.8691,2.8439-9.4091,5.062c-7.7954,6.8074-7.6917,14.128-0.8731,21.8078 c0.9341,1.0521,1.01,3.3814,0.6838,4.9534c-1.8436,8.8857,3.1614,15.61,12.1091,14.5248c4.9285-0.5978,9.8645-3.1596,14.1714-5.8415 c1.6721-1.0412,2.7482-5.2006,2.0951-7.3238c-1.0447-3.3963-4.5716-3.4354-7.7413-2.3165 c-2.4659,0.8705-4.9058,1.8144-7.3572,2.7256c-0.2548-0.3782-0.5096-0.7565-0.7644-1.1347c2.006-1.8443,3.9096-3.8184,6.0437-5.5 c2.6917-2.121,4.9255-4.3395,3.2506-8.0693c-1.7652-3.931-5.1125-2.9991-8.3109-2.5069c-2.8509,0.4388-5.7207,0.7547-8.8896,1.1647 C259.765,126.6714,261.9745,124.317,267.8675,120.6836z M297.9215,145.2058c-0.7187,1.6206-1.24,2.9679-1.271,3.373 c-0.4621,6.0428,6.2185,8.1118,10.4214,4.2115c5.0354-4.673,8.1893-10.4365,6.8925-17.5895 c-1.1046-6.0929-5.9404-8.5942-11.174-10.5809c-2.8268-1.0731-5.6929-2.1862-8.2713-3.7319 c-2.8494-1.7081-2.5843-4.1783,0.3544-5.2739c3.0656-1.1429,6.5258-1.1784,9.7397-1.9902c3.2357-0.8173,8.0002-5.6234,1.8077-7.0489 c-3.6806-0.8509-7.7154-1.2907-11.4176-0.6983c-8.3653,1.3385-12.4543,5.116-13.3381,11.083 c-0.983,6.637,2.039,11.5904,9.6705,15.5023c3.4148,1.7504,6.9615,3.2434,10.9909,5.1036 C301.7548,137.3017,299.4131,141.8423,297.9215,145.2058z M216.42,153.3547c-0.0134-8.7046-4.9539-15.0572-13.499-17.3571 c-6.4281-1.7301-12.9912,1.4674-17.3378,8.4468c-3.6072,5.7922-2.3451,19.229,2.9366,24.2018 c2.7393,2.5791,6.6173,3.9482,9.9809,5.8639C208.8441,173.2413,216.4371,164.4485,216.42,153.3547z M191.8898,153.7074 c-0.1205-2.6356,4.7497-7.0055,7.7338-6.5468c3.3819,0.5199,5.9523,2.0963,5.8025,6.2323c-0.183,5.05-3.0767,9.0394-6.8048,9.0293 C195.4471,162.4137,192.089,158.0662,191.8898,153.7074z M231.0523,159.73c0.6295,3.3939,2.4989,6.8532,6.773,5.795 c4.058-1.0047,4.5987-4.3311,3.4696-8.0987c-2.3152-7.7256-4.3714-15.5318-6.8309-23.2096c-1.0294-3.2134-0.722-4.998,2.8195-6.0139 c2.3869-0.6847,4.9206-1.7531,6.6902-3.4005c1.3151-1.2244,2.3405-3.8681,1.9259-5.4745c-0.3026-1.1723-3.5957-2.7919-4.8084-2.3142 c-8.7425,3.4444-17.3318,7.2926-25.8525,11.2645c-0.9238,0.4306-1.7861,2.7173-1.4303,3.684 c0.3536,0.9609,2.3278,1.9511,3.5076,1.8587c2.9748-0.233,5.9025-1.0683,9.3105-1.7552 C228.1138,141.5512,229.3735,150.6795,231.0523,159.73z M2.1155,141.1192c3.1824-18.092,22.8183-34.5753,41.4602-34.1909 c5.8839,0.1213,11.7676,0.3064,17.6516,0.3137c1.2751,0.0016,2.647-0.4396,3.8109-1.0103 c7.3449-3.6022,15.8638,0.4583,17.563,8.4447c1.0377,4.8772-1.535,9.9478-6.1685,12.1579 c-4.1048,1.9579-10.1721,1.2366-12.2633-2.7748c-4.2947-8.2378-16.3069-4.5663-22.9334-2.011 c-9.0615,3.4944-24.4765,11.2203-22.2289,23.6107c1.2713,6.9738,10.9045,2.8584,15.0162,4.9684 c2.8166,1.4454,5.5917,2.1347,8.1874-0.4491c4.0748-1.0762,8.1497-2.1525,12.2245-3.2287c3.3317-0.2139,6.6747-0.7033,9.992-0.5669 c3.558,0.1463,6.1168-0.5371,8.5638-3.6242c3.3933-4.281,9.7474-4.699,13.611-1.7944c4.3103,3.2405,5.7397,10.9285,2.8914,15.5513 c-2.8587,4.6397-8.8733,6.7755-13.5903,3.6391c-8.4297-5.6012-20.2887-0.8356-28.0503,3.7287 c-9.5715,5.6286-15.7483,11.8046-13.3953,23.5019c0.9915,4.9287,5.272,6.462,9.7741,7.1804 c3.7893,1.4294,7.5663,2.603,11.1345-0.539c3.8027-1.6005,7.6054-3.201,11.4082-4.8015c3.676-0.4765,7.4021-0.7261,11.0075-1.5224 c1.8893-0.4173,3.9947-1.4062,5.263-2.807c4.4667-4.9332,10.1982-5.6698,15.2356-1.5528c5.0042,4.0899,5.9262,10.807,2.1708,15.8156 c-3.7618,5.0173-9.6643,5.5829-15.1874,1.5917c-1.1262-0.8139-2.7421-1.8595-3.8622-1.6057 c-10.8378,2.4566-23.5474,8.3157-31.0455,16.8394c-6.593,7.4947-5.1704,13.3964,4.029,16.7148 c3.7029,0.9485,7.4058,1.897,11.1087,2.8456c4.4868,2.9963,8.3206-0.2079,12.3765-1.3042 c6.1717-1.7969,14.081,0.4156,17.5675-7.6155c0.1079-0.2485,0.5675-0.3336,0.8465-0.5199 c4.728-3.1585,10.4138-2.1735,14.3933,2.4975c4.8622,5.7072,5.3952,11.8246,1.4347,16.4671 c-3.6464,4.2744-10.3867,5.2175-15.0195,1.4583c-2.6358-2.1388-4.8892-2.4069-7.784-1.2576 c-10.2366,4.0642-48.1081,17.1431-27.5742,31.6553c1.4652,1.0355,3.2099,1.6752,4.826,2.498 c4.3787,2.2609,8.1358-1.3216,12.0123-2.8664c4.9599-1.9764,10.4228-3.116,15.7459-3.4865 c4.1395-0.2881,7.5216,0.1015,10.1493-3.745c3.1133-4.5574,9.4851-4.9501,14.0257-1.6986c5.1202,3.6665,6.5103,10.3839,3.248,15.695 c-2.8965,4.7155-9.6101,7.0497-14.0462,3.5252c-6.5065-5.1695-15.2418-1.1881-21.8532,1.8563 c-6.464,2.9764-15.1997,9.3092-17.5042,16.4609c-2.4798,7.696,3.9992,13.9071,10.4343,16.5766 c1.6611,0.6891,7.5547-1.9047,9.4307-2.4019c7.8264-2.0746,15.2728-2.4308,23.1573-3.7939 c1.9935-0.3446,4.1951-1.5942,5.5459-3.1091c2.7807-3.1186,5.671-5.1729,10.0578-4.2018c4.9958,1.1059,8.0273,4.3335,9.1015,9.0995 c0.9626,4.2711-0.6045,7.9812-4.1859,10.6296c-4.0156,2.9695-8.1436,2.2761-12.36,0.3243c-1.4085-0.652-3.1328-1.3716-4.5462-1.1208 c-10.484,1.8605-21.1055,4.9375-30.1353,10.7104c-5.4348,3.4745-9.8039,8.7869-7.6542,15.5696 c2.0739,6.5434,6.1902,11.8292,13.8109,12.8711c3.0589-1.2071,6.1178-2.4142,9.1768-3.6213 c3.3417-0.5465,6.6834-1.0931,10.0251-1.6396c7.0569-0.2145,14.2663,2.738,20.9251-3.096 c3.4719-3.0419,10.1823-0.0053,13.5185,4.6803c2.9538,4.1485,2.4696,9.571-1.197,13.4056 c-3.6724,3.8406-9.6697,5.1029-13.7022,1.5835c-8.5955-7.501-22.6996-2.5783-30.9689,2.955 c-4.541,3.0385-7.8083,7.3736-7.6872,13.1331c0.0764,3.6323,3.9544,11.9701,8.747,11.4508 c7.1875-0.7787,15.0091-1.8237,22.4933-1.7477c7.0207,0.0713,14.7737,2.9815,20.8197-1.9264 c3.6043-2.9258,9.9569-0.2204,12.8684,3.8655c2.862,4.0163,2.4506,9.203-1.0276,12.9567 c-3.4514,3.7248-8.9635,5.1569-12.7911,1.9585c-5.2476-4.3849-10.9239-3.4596-16.7346-3.2603 c-7.7479,1.36-14.9567,3.1245-21.7449,7.3032c-2.3798,1.4649-4.844,3.4807-5.0899,6.2702 c-1.2281,14.0815,21.2764,9.0985,23.39,18.9499c1.0884,5.0731-3.6375,6.0884-6.7286,8.1162 c-10.5757,0.7702-19.0113-3.7318-26.2461-10.9005c-8.654-8.575-9.5978-18.5655-2.9485-28.8419 c0.3555-0.5494,0.6567-1.1339,1.1697-2.0265c-13.8762-9.8773-14.5843-22.8048-8.1054-37.6751 c-8.1852-4.8085-15.001-10.9756-18.0934-20.1702c-3.2206-9.576,0.492-17.8562,5.9652-25.9949 c-6.729-4.7739-12.8809-9.7883-14.9742-18.0172c-2.074-8.1532,0.6024-15.2679,5.4255-21.9132 c-8.2071-5.6765-16.3209-10.85-18.0392-21.2554c-1.7222-10.4294,3.6248-17.7115,11.3107-24.5397 c-7.2333-3.2752-14.8983-6.1602-18.0457-14.0979c-3.1789-8.0172-0.9112-15.5988,3.4987-23.4285 c-8.9767-2.5514-15.5106-7.7523-17.8078-16.8753c-2.1214-8.4245-1.0678-16.6927,2.8907-25.2184 c-1.4509,3.1249-13.4453-6.529-14.5347-7.8064C2.1751,153.5266,1.0283,147.3012,2.1155,141.1192z" fill="#0b5243"/></g></svg>