<?xml version="1.0" encoding="UTF-8" standalone="no"?><svg xmlns="http://www.w3.org/2000/svg" xmlns:xlink="http://www.w3.org/1999/xlink" fill="#000000" height="863.2" preserveAspectRatio="xMidYMid meet" version="1" viewBox="15.0 107.8 1051.4 863.2" width="1051.4" zoomAndPan="magnify"><g id="change1_1"><path d="m 1033.8602,259.27678 c -1.7869,19.79945 -10.02,38.55301 -20.6625,55.34436 -10.6425,16.79134 -23.69662,31.89295 -36.2403,47.31589 -12.54368,15.42295 -24.71492,31.37924 -33.24907,49.33417 -8.53415,17.95493 -13.28119,38.20272 -10.26304,57.8522 3.39666,22.11372 16.30325,41.76624 31.7933,57.90972 15.49006,16.14348 33.67714,29.40706 50.60671,44.03383 16.9296,14.62677 32.9546,31.10213 42.3404,51.41129 4.6928,10.15458 7.639,21.18868 7.9262,32.37152 0.2872,11.18285 -2.1483,22.51361 -7.6217,32.26965 -7.6708,13.67275 -20.9408,23.62127 -35.4659,29.5209 -14.5252,5.89964 -30.30828,8.04802 -45.96506,8.85449 -15.65678,0.80648 -31.36075,0.32313 -47.01328,1.20819 -15.65254,0.88507 -31.42617,3.19503 -45.86081,9.31273 -25.19378,10.67765 -44.43299,32.22065 -58.15705,55.89319 -13.72406,23.67254 -22.65891,49.74324 -32.96803,75.09005 -10.30911,25.34682 -22.3611,50.56071 -41.065,70.53327 -9.35194,9.98628 -20.3265,18.55269 -32.6727,24.44812 -12.3462,5.89543 -26.09433,9.06252 -39.75626,8.33013 -13.63754,-0.73109 -26.94257,-5.33314 -38.58742,-12.46858 -11.64484,-7.13543 -21.66741,-16.75098 -29.98608,-27.58225 -16.63734,-21.66256 -26.35376,-47.75843 -34.76236,-73.74617 -8.4086,-25.98775 -15.83834,-52.52707 -28.72245,-76.61165 -12.88412,-24.08458 -32.04811,-45.95353 -57.40377,-56.11019 -23.18012,-9.28521 -49.44524,-7.9687 -73.64324,-1.80509 -24.19799,6.16361 -46.93595,16.89421 -70.05337,26.33446 -23.11741,9.44024 -47.20203,17.72363 -72.15838,18.56867 -12.47817,0.42252 -25.08369,-1.05558 -36.90492,-5.07327 -11.82123,-4.01768 -22.84383,-10.62744 -31.43321,-19.68866 -13.9173,-14.68182 -20.72481,-35.01498 -22.29161,-55.18408 -1.56679,-20.16909 1.69551,-40.38838 5.645,-60.22897 3.94948,-19.84059 8.61128,-39.63616 9.89272,-59.8254 1.28145,-20.18923 -1.01264,-41.08315 -10.2977,-59.05632 -8.3745,-16.21061 -22.01077,-29.216 -37.10064,-39.47327 -15.08988,-10.25727 -31.7131,-17.99951 -48.15961,-25.90068 -16.446506,-7.90116 -32.906098,-16.07354 -47.469778,-27.06514 -14.56368,-10.9916 -27.265919,-25.06656 -33.996606,-42.02574 -6.764862,-17.04529 -7.109564,-36.36302 -2.058322,-53.99226 5.051242,-17.62925 15.326532,-33.56978 28.501987,-46.32568 26.35091,-25.51178 63.082119,-37.76521 99.463209,-42.41685 36.38109,-4.65165 73.2419,-2.47748 109.90991,-3.30095 36.66802,-0.82346 74.16502,-4.90592 107.10958,-21.02663 31.84528,-15.5828 57.33908,-41.33502 85.74005,-62.556 14.20048,-10.61049 29.33193,-20.19902 45.88091,-26.55256 16.54899,-6.35353 34.64085,-9.36916 52.15726,-6.64669 20.99605,3.26329 40.06016,14.56392 55.97645,28.64067 15.91628,14.07676 29.07907,30.93238 42.43381,47.45914 13.35475,16.52677 27.14412,32.96925 43.99197,45.91657 16.84785,12.94732 37.18229,22.2876 58.42758,22.63517 16.5083,0.27008 32.76746,-4.89067 47.3441,-12.64429 14.57664,-7.75362 27.64041,-18.04064 40.28364,-28.65883 12.64322,-10.61819 24.98458,-21.64912 38.49129,-31.14469 13.50671,-9.49556 28.32653,-17.48301 44.39684,-21.2701 28.37343,-6.68641 59.76745,0.86252 81.89915,19.83481 22.1317,18.97229 34.3982,48.92516 31.7781,77.9578 z" fill="#022e40"/></g></svg>