<?xml version="1.0" encoding="UTF-8" standalone="no"?><svg xmlns="http://www.w3.org/2000/svg" xmlns:xlink="http://www.w3.org/1999/xlink" fill="#000000" height="494" preserveAspectRatio="xMidYMid meet" version="1" viewBox="0.0 0.0 449.1 494.0" width="449.1" zoomAndPan="magnify"><g><g fill="#ffffff" id="change1_1"><path d="M281,451c-1.1-1.6-3.3-2.7-4.7-2.5l-103.2,0.6c0,0-3.7,1-4.7,2.6c-1,1.6-1.2,3.6-0.4,5.3 c9.8,22.5,32.1,37,56.6,37c24.9,0,47.2-14.8,56.9-37.7C282.2,454.5,282,452.5,281,451z" fill="inherit"/><path d="M445.1,395.6l-63.3-52.8V202.1c0-71.3-47.8-131.6-113-150.8c0.3-2.1,0.7-4.2,0.7-6.4 c0-24.8-20.1-44.9-44.9-44.9s-44.9,20.1-44.9,44.9c0,2.2,0.4,4.3,0.7,6.4c-65.2,19.2-113,79.4-113,150.8v140.7L4,395.6 c-2.6,2.1-4,5.3-4,8.6v11.2c0,6.2,5,11.2,11.2,11.2h426.7c6.2,0,11.2-5,11.2-11.2v-11.2C449.1,400.9,447.6,397.7,445.1,395.6z M202.3,46.7c0-0.6-0.2-1.2-0.2-1.8c0-12.4,10.1-22.5,22.5-22.5S247,32.5,247,44.9c0,0.6-0.1,1.2-0.2,1.8 c-7.3-1-14.7-1.8-22.3-1.8S209.6,45.6,202.3,46.7z" fill="inherit"/></g></g></svg>